<svg viewBox="0 0 12 12" fill="none" xmlns="http://www.w3.org/2000/svg">
<path d="M9.25 5.45703L4.25098 10.457C4.11816 10.5899 4.00403 10.7066 3.86719 10.7969C3.75437 10.8713 3.63149 10.9301 3.50293 10.9717C3.347 11.0221 3.18466 11.0379 2.99805 11.0586L1.30566 11.2471C1.15471 11.2638 1.00388 11.2109 0.896484 11.1035C0.789231 10.9961 0.736168 10.8452 0.75293 10.6943L0.941406 9.00293C0.962161 8.81613 0.977817 8.65313 1.02832 8.49707C1.06994 8.36852 1.12874 8.24562 1.20312 8.13281C1.29342 7.99595 1.4111 7.88187 1.54395 7.74902L6.54297 2.75L9.25 5.45703ZM8.14648 1.14648C8.89396 0.399083 10.106 0.399191 10.8535 1.14648C11.601 1.89401 11.601 3.10596 10.8535 3.85352L9.95703 4.74902L7.25 2.04199L8.14648 1.14648Z" fill="currentColor"/>
</svg>
