<svg viewBox="0 0 20 20" fill="current" xmlns="http://www.w3.org/2000/svg">
<g clip-path="url(#clip0_20853_31500)">
<path d="M8.33398 1.66679C8.33398 0.933452 9.21398 0.557618 9.74398 1.06512C11.3757 2.62845 12.324 6.06095 11.2023 8.66512L11.1357 8.81012L11.1457 8.81262C11.6665 8.92345 12.1482 8.45429 13.0648 7.00179L13.1815 6.81512C13.2491 6.70628 13.3409 6.6145 13.4498 6.5469C13.5586 6.47931 13.6816 6.43774 13.8091 6.4254C13.9367 6.41307 14.0653 6.43031 14.1851 6.47579C14.3049 6.52126 14.4126 6.59375 14.4998 6.68762C15.6115 7.88345 16.6673 10.3351 16.6673 11.9126C16.6673 15.4668 13.6748 18.3335 10.0007 18.3335C6.32648 18.3335 3.33398 15.4668 3.33398 11.9118C3.33398 10.0351 4.18565 7.98179 5.52732 6.66095L6.03148 6.17012C6.23232 5.97345 6.39315 5.81179 6.54648 5.65012C7.73815 4.39012 8.33398 3.21345 8.33398 1.66679Z" fill="current"/>
</g>
<defs>
<clipPath id="clip0_20853_31500">
<rect width="20" height="20" fill="none"/>
</clipPath>
</defs>
</svg>
