<svg width="140" height="40" viewBox="0 0 140 40" fill="none" xmlns="http://www.w3.org/2000/svg">
<path d="M31.62 30H26.0498L22.7492 26.6164V20.9062L31.62 30Z" fill="url(#paint0_radial_21924_108863)"/>
<path d="M31.62 30H26.0498L22.7492 26.6164V20.9062L31.62 30Z" fill="url(#paint1_radial_21924_108863)"/>
<path d="M31.702 10L27.7642 14.0368H21.2023L25.1401 10H31.702Z" fill="url(#paint2_radial_21924_108863)"/>
<path d="M31.702 10L27.7642 14.0368H21.2023L25.1401 10H31.702Z" fill="url(#paint3_radial_21924_108863)"/>
<path d="M32 16.3779L28.0622 20.4146H22.5381L19.1838 23.8532H8V23.8239L11.9092 19.8165H17.5514L19.6205 17.6953L20.8663 16.4219L20.9093 16.3779H32Z" fill="url(#paint4_radial_21924_108863)"/>
<path d="M32 16.3779L28.0622 20.4146H22.5381L19.1838 23.8532H8V23.8239L11.9092 19.8165H17.5514L19.6205 17.6953L20.8663 16.4219L20.9093 16.3779H32Z" fill="url(#paint5_radial_21924_108863)"/>
<path d="M45.8578 22.4963H43.62L40.268 28H36L42.5125 17.3071L45.9159 15.2039H42.2247L46.8984 12H55.2497C57.5106 12 58.1809 12.9828 57.0675 14.8108L54.3021 19.3514C53.476 20.7076 52.1068 21.5921 50.3336 21.9656L50.1881 28H45.551L45.8578 22.4963ZM50.0239 19.2924L52.514 15.2039H48.0615L45.5714 19.2924H50.0239Z" fill="url(#paint6_radial_21924_108863)"/>
<path d="M45.8578 22.4963H43.62L40.268 28H36L42.5125 17.3071L45.9159 15.2039H42.2247L46.8984 12H55.2497C57.5106 12 58.1809 12.9828 57.0675 14.8108L54.3021 19.3514C53.476 20.7076 52.1068 21.5921 50.3336 21.9656L50.1881 28H45.551L45.8578 22.4963ZM50.0239 19.2924L52.514 15.2039H48.0615L45.5714 19.2924H50.0239Z" fill="url(#paint7_radial_21924_108863)"/>
<path d="M55.2004 28C53.2395 28 52.6863 26.9386 53.6799 25.3071L61.7847 12H65.9834L58.1899 24.7961H63.3807L71.1742 12H75.3729L65.6281 28H55.2004Z" fill="url(#paint8_radial_21924_108863)"/>
<path d="M55.2004 28C53.2395 28 52.6863 26.9386 53.6799 25.3071L61.7847 12H65.9834L58.1899 24.7961H63.3807L71.1742 12H75.3729L65.6281 28H55.2004Z" fill="url(#paint9_radial_21924_108863)"/>
<path d="M86.0973 15.2039H80.9065L73.113 28H68.9143L77.019 14.6929C78.0127 13.0614 79.8588 12 81.8197 12H92.2474L82.5026 28H78.3038L86.0973 15.2039Z" fill="url(#paint10_radial_21924_108863)"/>
<path d="M86.0973 15.2039H80.9065L73.113 28H68.9143L77.019 14.6929C78.0127 13.0614 79.8588 12 81.8197 12H92.2474L82.5026 28H78.3038L86.0973 15.2039Z" fill="url(#paint11_radial_21924_108863)"/>
<path d="M95.5798 12H108.453L103.71 15.2039H97.8964L95.9929 18.3292H102.406L100.443 21.5528H94.0295L90.1029 28H85.8349L95.5798 12Z" fill="url(#paint12_radial_21924_108863)"/>
<path d="M95.5798 12H108.453L103.71 15.2039H97.8964L95.9929 18.3292H102.406L100.443 21.5528H94.0295L90.1029 28H85.8349L95.5798 12Z" fill="url(#paint13_radial_21924_108863)"/>
<path d="M110.271 12H114.608L104.863 28H100.526L110.271 12Z" fill="url(#paint14_radial_21924_108863)"/>
<path d="M110.271 12H114.608L104.863 28H100.526L110.271 12Z" fill="url(#paint15_radial_21924_108863)"/>
<path d="M119.527 15.2826H114.89L116.889 12H132L127.209 15.2826H123.887L116.142 28H111.781L119.527 15.2826Z" fill="url(#paint16_radial_21924_108863)"/>
<path d="M119.527 15.2826H114.89L116.889 12H132L127.209 15.2826H123.887L116.142 28H111.781L119.527 15.2826Z" fill="url(#paint17_radial_21924_108863)"/>
<defs>
<radialGradient id="paint0_radial_21924_108863" cx="0" cy="0" r="1" gradientTransform="matrix(20.7805 0.357142 -0.292681 25.3571 7.76448 21.4286)" gradientUnits="userSpaceOnUse">
<stop stop-color="#DFE5F9"/>
<stop offset="1" stop-color="#BABAFA"/>
</radialGradient>
<radialGradient id="paint1_radial_21924_108863" cx="0" cy="0" r="1" gradientTransform="matrix(-3.5122 16.7857 -13.7561 -4.28571 29.423 10)" gradientUnits="userSpaceOnUse">
<stop stop-color="#F7DFF9"/>
<stop offset="1" stop-color="#F7DFF9" stop-opacity="0"/>
</radialGradient>
<radialGradient id="paint2_radial_21924_108863" cx="0" cy="0" r="1" gradientTransform="matrix(20.7805 0.357142 -0.292681 25.3571 7.76448 21.4286)" gradientUnits="userSpaceOnUse">
<stop stop-color="#DFE5F9"/>
<stop offset="1" stop-color="#BABAFA"/>
</radialGradient>
<radialGradient id="paint3_radial_21924_108863" cx="0" cy="0" r="1" gradientTransform="matrix(-3.5122 16.7857 -13.7561 -4.28571 29.423 10)" gradientUnits="userSpaceOnUse">
<stop stop-color="#F7DFF9"/>
<stop offset="1" stop-color="#F7DFF9" stop-opacity="0"/>
</radialGradient>
<radialGradient id="paint4_radial_21924_108863" cx="0" cy="0" r="1" gradientTransform="matrix(20.7805 0.357142 -0.292681 25.3571 7.76448 21.4286)" gradientUnits="userSpaceOnUse">
<stop stop-color="#DFE5F9"/>
<stop offset="1" stop-color="#BABAFA"/>
</radialGradient>
<radialGradient id="paint5_radial_21924_108863" cx="0" cy="0" r="1" gradientTransform="matrix(-3.5122 16.7857 -13.7561 -4.28571 29.423 10)" gradientUnits="userSpaceOnUse">
<stop stop-color="#F7DFF9"/>
<stop offset="1" stop-color="#F7DFF9" stop-opacity="0"/>
</radialGradient>
<radialGradient id="paint6_radial_21924_108863" cx="0" cy="0" r="1" gradientTransform="matrix(83.122 0.285714 -1.17073 20.2857 35.0579 21.1429)" gradientUnits="userSpaceOnUse">
<stop stop-color="#DFE5F9"/>
<stop offset="1" stop-color="#BABAFA"/>
</radialGradient>
<radialGradient id="paint7_radial_21924_108863" cx="0" cy="0" r="1" gradientTransform="matrix(-14.0488 13.4286 -55.0244 -3.42857 121.692 12)" gradientUnits="userSpaceOnUse">
<stop stop-color="#F7DFF9"/>
<stop offset="1" stop-color="#F7DFF9" stop-opacity="0"/>
</radialGradient>
<radialGradient id="paint8_radial_21924_108863" cx="0" cy="0" r="1" gradientTransform="matrix(83.122 0.285714 -1.17073 20.2857 35.0579 21.1429)" gradientUnits="userSpaceOnUse">
<stop stop-color="#DFE5F9"/>
<stop offset="1" stop-color="#BABAFA"/>
</radialGradient>
<radialGradient id="paint9_radial_21924_108863" cx="0" cy="0" r="1" gradientTransform="matrix(-14.0488 13.4286 -55.0244 -3.42857 121.692 12)" gradientUnits="userSpaceOnUse">
<stop stop-color="#F7DFF9"/>
<stop offset="1" stop-color="#F7DFF9" stop-opacity="0"/>
</radialGradient>
<radialGradient id="paint10_radial_21924_108863" cx="0" cy="0" r="1" gradientTransform="matrix(83.122 0.285714 -1.17073 20.2857 35.0579 21.1429)" gradientUnits="userSpaceOnUse">
<stop stop-color="#DFE5F9"/>
<stop offset="1" stop-color="#BABAFA"/>
</radialGradient>
<radialGradient id="paint11_radial_21924_108863" cx="0" cy="0" r="1" gradientTransform="matrix(-14.0488 13.4286 -55.0244 -3.42857 121.692 12)" gradientUnits="userSpaceOnUse">
<stop stop-color="#F7DFF9"/>
<stop offset="1" stop-color="#F7DFF9" stop-opacity="0"/>
</radialGradient>
<radialGradient id="paint12_radial_21924_108863" cx="0" cy="0" r="1" gradientTransform="matrix(83.122 0.285714 -1.17073 20.2857 35.0579 21.1429)" gradientUnits="userSpaceOnUse">
<stop stop-color="#DFE5F9"/>
<stop offset="1" stop-color="#BABAFA"/>
</radialGradient>
<radialGradient id="paint13_radial_21924_108863" cx="0" cy="0" r="1" gradientTransform="matrix(-14.0488 13.4286 -55.0244 -3.42857 121.692 12)" gradientUnits="userSpaceOnUse">
<stop stop-color="#F7DFF9"/>
<stop offset="1" stop-color="#F7DFF9" stop-opacity="0"/>
</radialGradient>
<radialGradient id="paint14_radial_21924_108863" cx="0" cy="0" r="1" gradientTransform="matrix(83.122 0.285714 -1.17073 20.2857 35.0579 21.1429)" gradientUnits="userSpaceOnUse">
<stop stop-color="#DFE5F9"/>
<stop offset="1" stop-color="#BABAFA"/>
</radialGradient>
<radialGradient id="paint15_radial_21924_108863" cx="0" cy="0" r="1" gradientTransform="matrix(-14.0488 13.4286 -55.0244 -3.42857 121.692 12)" gradientUnits="userSpaceOnUse">
<stop stop-color="#F7DFF9"/>
<stop offset="1" stop-color="#F7DFF9" stop-opacity="0"/>
</radialGradient>
<radialGradient id="paint16_radial_21924_108863" cx="0" cy="0" r="1" gradientTransform="matrix(83.122 0.285714 -1.17073 20.2857 35.0579 21.1429)" gradientUnits="userSpaceOnUse">
<stop stop-color="#DFE5F9"/>
<stop offset="1" stop-color="#BABAFA"/>
</radialGradient>
<radialGradient id="paint17_radial_21924_108863" cx="0" cy="0" r="1" gradientTransform="matrix(-14.0488 13.4286 -55.0244 -3.42857 121.692 12)" gradientUnits="userSpaceOnUse">
<stop stop-color="#F7DFF9"/>
<stop offset="1" stop-color="#F7DFF9" stop-opacity="0"/>
</radialGradient>
</defs>
</svg>
