<svg width="36" height="36" viewBox="0 0 36 36" fill="none" xmlns="http://www.w3.org/2000/svg">
<path d="M31.5567 29.5H25.0581L21.2074 25.6089V19.0422L31.5567 29.5Z" fill="url(#paint0_radial_22465_48223)"/>
<path d="M31.5567 29.5H25.0581L21.2074 25.6089V19.0422L31.5567 29.5Z" fill="url(#paint1_radial_22465_48223)"/>
<path d="M31.6523 6.5L27.0582 11.1423H19.4027L23.9968 6.5H31.6523Z" fill="url(#paint2_radial_22465_48223)"/>
<path d="M31.6523 6.5L27.0582 11.1423H19.4027L23.9968 6.5H31.6523Z" fill="url(#paint3_radial_22465_48223)"/>
<path d="M32 13.8345L27.4059 18.4768H20.9611L17.0478 22.4312H4V22.3975L8.56069 17.7889H15.1433L17.5573 15.3496L19.0107 13.8852L19.0608 13.8345H32Z" fill="url(#paint4_radial_22465_48223)"/>
<path d="M32 13.8345L27.4059 18.4768H20.9611L17.0478 22.4312H4V22.3975L8.56069 17.7889H15.1433L17.5573 15.3496L19.0107 13.8852L19.0608 13.8345H32Z" fill="url(#paint5_radial_22465_48223)"/>
<defs>
<radialGradient id="paint0_radial_22465_48223" cx="0" cy="0" r="1" gradientTransform="matrix(24.2439 0.410713 -0.341462 29.1607 3.72523 19.6429)" gradientUnits="userSpaceOnUse">
<stop stop-color="#DFE5F9"/>
<stop offset="1" stop-color="#BABAFA"/>
</radialGradient>
<radialGradient id="paint1_radial_22465_48223" cx="0" cy="0" r="1" gradientTransform="matrix(-4.09756 19.3036 -16.0488 -4.92857 28.9935 6.5)" gradientUnits="userSpaceOnUse">
<stop stop-color="#F7DFF9"/>
<stop offset="1" stop-color="#F7DFF9" stop-opacity="0"/>
</radialGradient>
<radialGradient id="paint2_radial_22465_48223" cx="0" cy="0" r="1" gradientTransform="matrix(24.2439 0.410713 -0.341462 29.1607 3.72523 19.6429)" gradientUnits="userSpaceOnUse">
<stop stop-color="#DFE5F9"/>
<stop offset="1" stop-color="#BABAFA"/>
</radialGradient>
<radialGradient id="paint3_radial_22465_48223" cx="0" cy="0" r="1" gradientTransform="matrix(-4.09756 19.3036 -16.0488 -4.92857 28.9935 6.5)" gradientUnits="userSpaceOnUse">
<stop stop-color="#F7DFF9"/>
<stop offset="1" stop-color="#F7DFF9" stop-opacity="0"/>
</radialGradient>
<radialGradient id="paint4_radial_22465_48223" cx="0" cy="0" r="1" gradientTransform="matrix(24.2439 0.410713 -0.341462 29.1607 3.72523 19.6429)" gradientUnits="userSpaceOnUse">
<stop stop-color="#DFE5F9"/>
<stop offset="1" stop-color="#BABAFA"/>
</radialGradient>
<radialGradient id="paint5_radial_22465_48223" cx="0" cy="0" r="1" gradientTransform="matrix(-4.09756 19.3036 -16.0488 -4.92857 28.9935 6.5)" gradientUnits="userSpaceOnUse">
<stop stop-color="#F7DFF9"/>
<stop offset="1" stop-color="#F7DFF9" stop-opacity="0"/>
</radialGradient>
</defs>
</svg>
