<svg width="current" height="current" viewBox="0 0 16 16" fill="none" xmlns="http://www.w3.org/2000/svg">
<g clip-path="url(#clip0_24228_5065)">
<path d="M7.99935 1.33203C8.65862 1.33203 9.30309 1.52753 9.85125 1.8938C10.3994 2.26007 10.8267 2.78067 11.0789 3.38975C11.3312 3.99884 11.3973 4.66906 11.2686 5.31567C11.14 5.96227 10.8225 6.55621 10.3564 7.02239C9.8902 7.48856 9.29625 7.80603 8.64965 7.93465C8.00305 8.06327 7.33282 7.99725 6.72374 7.74496C6.11465 7.49267 5.59405 7.06543 5.22778 6.51726C4.86151 5.9691 4.66602 5.32464 4.66602 4.66536L4.66935 4.5207C4.70663 3.66253 5.07375 2.85188 5.69416 2.2578C6.31457 1.66373 7.14037 1.33208 7.99935 1.33203Z" fill="currentColor"/>
<path d="M9.33398 9.33203C10.218 9.33203 11.0659 9.68322 11.691 10.3083C12.3161 10.9335 12.6673 11.7813 12.6673 12.6654V13.332C12.6673 13.6857 12.5268 14.0248 12.2768 14.2748C12.0267 14.5249 11.6876 14.6654 11.334 14.6654H4.66732C4.3137 14.6654 3.97456 14.5249 3.72451 14.2748C3.47446 14.0248 3.33398 13.6857 3.33398 13.332V12.6654C3.33398 11.7813 3.68517 10.9335 4.3103 10.3083C4.93542 9.68322 5.78326 9.33203 6.66732 9.33203H9.33398Z" fill="currentColor"/>
</g>
<defs>
<clipPath id="clip0_24228_5065">
<rect width="16" height="16" fill="white"/>
</clipPath>
</defs>
</svg>
