<svg width="current" height="current" viewBox="0 0 48 48" fill="none" xmlns="http://www.w3.org/2000/svg">
<g clip-path="url(#clip0_21078_26674)">
<circle cx="24" cy="24" r="23.1429" fill="white" stroke="#E5E7EB" stroke-width="1.71429"/>
<path d="M24 9C30.9067 9 36.7224 13.6683 38.4658 20.0215C41.009 20.2563 43 22.3956 43 25C42.9999 27.7613 40.7614 30 38 30C37.9171 30 37.8348 29.9972 37.7529 29.9932C35.4396 35.2941 30.1533 39 24 39C17.4677 38.9999 11.9117 34.8238 9.85352 28.9961C7.15991 28.9185 5 26.7124 5 24C5.0001 21.288 7.15943 19.081 9.85254 19.0029C11.9108 13.1755 17.4679 9.00012 24 9Z" fill="#E5E7EB"/>
<path d="M19.8936 20C21.1031 20 22.1271 20.6538 22.5996 21.6025C22.9947 21.5383 23.4583 21.5 24.001 21.5C24.9149 21.5 25.605 21.6086 26.1201 21.7695C26.6607 21.0254 27.5829 20.5273 28.6064 20.5273C29.1842 20.5275 29.9547 20.8825 30.3398 21.4141C30.3881 21.5465 30.5796 21.5465 30.6279 21.4141C30.965 20.8381 31.7839 20.4834 32.3135 20.4834C33.9503 20.4834 35.2505 21.6795 35.2988 23.1855V23.2744C35.2988 24.0719 34.9615 24.7812 34.3838 25.2686V25.3125C34.2875 25.3568 32.0241 27.2178 30.9648 28.0596C30.676 28.2807 30.2428 28.2809 29.9541 28.0596C28.8959 27.2186 26.5886 25.3603 26.5361 25.3125V25.2686C25.9584 24.7369 25.6211 24.0276 25.6211 23.2744V23.1855C25.6216 23.1715 25.6223 23.1575 25.623 23.1436C25.183 23.0553 24.648 23 24.001 23C23.575 23 23.1979 23.0254 22.8643 23.0664C22.7959 23.7509 22.4742 24.3547 21.9639 24.7852V24.8291C21.8676 24.8734 19.6052 26.7344 18.5459 27.5762C18.257 27.7977 17.8231 27.7976 17.5342 27.5762C16.4762 26.7354 14.1697 24.8777 14.1162 24.8291V24.7852C13.5385 24.2535 13.2012 23.5442 13.2012 22.791V22.7021C13.2495 21.2403 14.5978 20.0439 16.1865 20.0439C16.7642 20.0441 17.5348 20.3991 17.9199 20.9307C17.9683 21.063 18.1597 21.063 18.208 20.9307C18.545 20.3547 19.3639 20 19.8936 20Z" fill="#6B7280"/>
<path d="M21.5 28.5C21.6667 28.8333 22.4 29.5 24 29.5C25.6 29.5 26.3333 28.8333 26.5 28.5" stroke="#6B7280" stroke-width="1.5" stroke-linecap="round" stroke-linejoin="round"/>
<path d="M21.5924 11.1568C21.0678 11.5678 20.243 13.2241 20.6974 14.3893C21.1518 15.5545 21.8625 15.8432 22.2233 15.936" stroke="#6B7280" stroke-width="1.19239" stroke-linecap="round"/>
<path d="M24.7798 11.9776C24.2545 12.3358 23.8771 13.8764 24.3802 14.9528C24.7546 15.7539 25.7122 16.0649 26.0171 16.1433" stroke="#6B7280" stroke-width="1.19239" stroke-linecap="round"/>
<path d="M27.4301 12.5248C27.1785 12.8548 27.3629 13.8057 27.7952 14.4493C28.0507 14.8299 28.8245 15.3857 29.0294 15.3715" stroke="#6B7280" stroke-width="1.19" stroke-linecap="round"/>
</g>
<defs>
<clipPath id="clip0_21078_26674">
<rect width="48" height="48" fill="white"/>
</clipPath>
</defs>
</svg>
