<svg viewBox="0 0 20 20" fill="current" xmlns="http://www.w3.org/2000/svg">
<g clip-path="url(#clip0_22895_25065)">
<path d="M10.6816 3.18262C10.6816 3.00179 10.6093 2.8279 10.4814 2.70003C10.3536 2.57237 10.1803 2.50065 9.99967 2.50065C9.819 2.50065 9.64574 2.57237 9.5179 2.70003C9.39004 2.8279 9.31771 3.00179 9.31771 3.18262V3.31445C9.31609 3.72058 9.19601 4.11756 8.97184 4.45622C8.74755 4.7949 8.42885 5.06113 8.0555 5.22119C7.98866 5.24984 7.91799 5.26776 7.84635 5.27816C7.50801 5.39597 7.14441 5.42542 6.79004 5.36117C6.38045 5.2869 6.002 5.09235 5.70443 4.80127L5.69792 4.79476L5.65316 4.74919L5.65234 4.74837C5.58907 4.68509 5.51366 4.63534 5.43099 4.60107C5.34824 4.56678 5.25934 4.54899 5.16976 4.54899C5.08033 4.54904 4.99197 4.56684 4.90934 4.60107C4.82669 4.63534 4.75125 4.68511 4.68799 4.74837L4.68717 4.74919C4.6238 4.81249 4.57337 4.88779 4.53906 4.97054C4.50475 5.05331 4.48698 5.14217 4.48698 5.23177C4.48699 5.32135 4.50476 5.41025 4.53906 5.493C4.56485 5.55516 4.59983 5.61293 4.64242 5.66471L4.68717 5.71436L4.73926 5.76644C5.03027 6.06395 5.22566 6.44176 5.29997 6.85124C5.37423 7.26083 5.324 7.68379 5.15592 8.06462L5.15511 8.0638C5.00773 8.43539 4.75818 8.75772 4.43245 8.99072C4.09254 9.23384 3.68732 9.36906 3.26953 9.37891C3.26315 9.37906 3.25639 9.37972 3.25 9.37972H3.18164C3.00081 9.37972 2.82692 9.45124 2.69906 9.5791C2.57137 9.70686 2.49978 9.88025 2.49967 10.0609C2.49967 10.2416 2.57126 10.4156 2.69906 10.5435C2.82692 10.6713 3.00081 10.7428 3.18164 10.7428H3.31348C3.71969 10.7445 4.11654 10.8653 4.45524 11.0895C4.79151 11.3122 5.05573 11.6278 5.21615 11.9977H5.21696C5.38492 12.3785 5.43443 12.8008 5.36019 13.2103C5.28592 13.6199 5.09138 13.9983 4.80029 14.2959L4.79378 14.3024L4.74821 14.3472L4.7474 14.348C4.68411 14.4113 4.63437 14.4867 4.6001 14.5693C4.5658 14.6521 4.54801 14.741 4.54801 14.8306C4.54806 14.92 4.56587 15.0084 4.6001 15.091C4.63436 15.1736 4.68413 15.2491 4.7474 15.3123L4.74821 15.3132C4.81152 15.3765 4.88681 15.427 4.96956 15.4613C5.05233 15.4956 5.14119 15.5133 5.23079 15.5133C5.32038 15.5133 5.40927 15.4956 5.49202 15.4613C5.57474 15.427 5.6501 15.3765 5.71338 15.3132L5.76546 15.2611C6.06297 14.9701 6.44078 14.7747 6.85026 14.7004C7.25985 14.6261 7.68281 14.6763 8.06364 14.8444H8.06283C8.43453 14.9918 8.75668 15.2421 8.98975 15.5679C9.23287 15.9078 9.36808 16.313 9.37793 16.7308C9.37808 16.7372 9.37874 16.7439 9.37874 16.7503V16.8187C9.37874 16.9995 9.45026 17.1734 9.57812 17.3013C9.70589 17.429 9.87927 17.5005 10.0599 17.5007C10.2407 17.5007 10.4146 17.4291 10.5425 17.3013C10.6703 17.1734 10.7419 16.9995 10.7419 16.8187V16.6868C10.7435 16.2806 10.8643 15.8838 11.0885 15.5451C11.3113 15.2087 11.6267 14.9438 11.9967 14.7834L12.1408 14.7264C12.4825 14.6051 12.8508 14.5751 13.2093 14.6401C13.5677 14.7051 13.902 14.8624 14.1794 15.0959L14.2949 15.2L14.3014 15.2065L14.3462 15.2521L14.347 15.2529C14.4103 15.3162 14.4857 15.366 14.5684 15.4002C14.6511 15.4345 14.74 15.4523 14.8296 15.4523C14.919 15.4523 15.0074 15.4345 15.09 15.4002C15.1727 15.366 15.2481 15.3162 15.3114 15.2529L15.3122 15.2521C15.3756 15.1888 15.426 15.1135 15.4603 15.0308C15.4946 14.948 15.5124 14.8591 15.5124 14.7695C15.5124 14.6799 15.4946 14.5911 15.4603 14.5083C15.4345 14.4461 15.3995 14.3884 15.3569 14.3366L15.3122 14.2869L15.2601 14.2349C14.9691 13.9374 14.7737 13.5595 14.6994 13.1501C14.6344 12.7917 14.6645 12.4231 14.7856 12.0815L14.8434 11.9367C15.0039 11.5669 15.2681 11.2511 15.6043 11.0285C15.943 10.8043 16.3399 10.6843 16.7461 10.6826H16.8177C16.9985 10.6826 17.1724 10.6103 17.3003 10.4824C17.428 10.3546 17.4997 10.1813 17.4997 10.0007C17.4997 9.81998 17.428 9.64672 17.3003 9.51888C17.1724 9.39101 16.9985 9.31869 16.8177 9.31869H16.6859C16.2797 9.31707 15.8828 9.19698 15.5441 8.97282C15.2054 8.74853 14.9392 8.42983 14.7791 8.05648C14.7505 7.9896 14.7317 7.919 14.7214 7.84733C14.6036 7.50906 14.5749 7.1453 14.6392 6.79102C14.7134 6.38143 14.908 6.00298 15.1991 5.7054L15.2056 5.69889L15.2511 5.65413L15.252 5.65332C15.3152 5.59004 15.365 5.51463 15.3993 5.43197C15.4335 5.34921 15.4513 5.26032 15.4513 5.17074C15.4513 5.0813 15.4335 4.99294 15.3993 4.91032C15.365 4.82767 15.3152 4.75223 15.252 4.68897L15.2511 4.68815C15.1878 4.62477 15.1125 4.57435 15.0298 4.54004C14.947 4.50573 14.8582 4.48796 14.7686 4.48796C14.679 4.48796 14.5901 4.50573 14.5073 4.54004C14.4452 4.56582 14.3874 4.6008 14.3356 4.64339L14.286 4.68815L14.2339 4.74023C13.9364 5.03125 13.5586 5.22664 13.1491 5.30094C12.7395 5.37521 12.3165 5.32498 11.9357 5.1569V5.15609C11.566 4.99565 11.2501 4.73211 11.0275 4.396C10.8033 4.05735 10.6833 3.66038 10.6816 3.25423V3.18262ZM11.6663 10.0007C11.6663 9.08018 10.9201 8.33398 9.99967 8.33398C9.0792 8.33398 8.33301 9.08018 8.33301 10.0007C8.33301 10.9211 9.0792 11.6673 9.99967 11.6673C10.9201 11.6673 11.6663 10.9211 11.6663 10.0007ZM13.333 10.0007C13.333 11.8416 11.8406 13.334 9.99967 13.334C8.15873 13.334 6.66634 11.8416 6.66634 10.0007C6.66634 8.1597 8.15873 6.66732 9.99967 6.66732C11.8406 6.66732 13.333 8.1597 13.333 10.0007ZM12.3483 3.24772L12.3532 3.30794C12.3622 3.36762 12.3839 3.42486 12.4175 3.47559C12.4623 3.54331 12.5259 3.59657 12.6006 3.62858L12.6087 3.63184C12.6848 3.66542 12.7694 3.67593 12.8512 3.66113C12.9332 3.64628 13.009 3.60704 13.0685 3.54883L13.1076 3.50977C13.3256 3.29164 13.5844 3.11842 13.8693 3.00033C14.1544 2.88216 14.46 2.8213 14.7686 2.82129C15.0771 2.82129 15.3828 2.88218 15.6678 3.00033C15.9527 3.11841 16.2115 3.29167 16.4295 3.50977L16.585 3.68066C16.7312 3.85874 16.8504 4.05787 16.939 4.27148C17.0571 4.55647 17.118 4.86224 17.118 5.17074C17.118 5.47936 17.0572 5.7857 16.939 6.0708C16.8504 6.28441 16.7312 6.48355 16.585 6.66162L16.4295 6.83252L16.3848 6.87809C16.3301 6.93649 16.2933 7.00924 16.279 7.08805C16.2641 7.16988 16.2739 7.25447 16.3075 7.33057C16.328 7.3772 16.343 7.42609 16.3547 7.47542C16.3843 7.51729 16.4206 7.55423 16.4637 7.58285C16.5315 7.62771 16.6111 7.65169 16.6924 7.65202H16.8177C17.4405 7.65202 18.0383 7.8993 18.4787 8.33968C18.9191 8.78011 19.1663 9.37779 19.1663 10.0007C19.1663 10.6235 18.9191 11.2212 18.4787 11.6616C18.0383 12.102 17.4405 12.3493 16.8177 12.3493H16.7526L16.6924 12.3542C16.6327 12.3632 16.5755 12.3849 16.5247 12.4185C16.457 12.4633 16.4038 12.5269 16.3717 12.6016L16.3685 12.6097C16.3349 12.6858 16.3244 12.7704 16.3392 12.8522C16.354 12.9341 16.3933 13.01 16.4515 13.0695L16.4897 13.1077C16.7081 13.3259 16.8818 13.5852 17 13.8703C17.1182 14.1553 17.179 14.4609 17.179 14.7695C17.179 15.0781 17.1181 15.3837 17 15.6688C16.8819 15.9536 16.7078 16.2117 16.4897 16.4297L16.4906 16.4305C16.2726 16.6487 16.0138 16.8218 15.7288 16.9399C15.4439 17.0581 15.1381 17.1189 14.8296 17.119C14.521 17.119 14.2146 17.0581 13.9295 16.9399C13.7159 16.8513 13.5168 16.7322 13.3387 16.5859L13.1678 16.4305L13.1222 16.3857H13.1214C13.0631 16.3313 12.9909 16.2943 12.9123 16.2799C12.8304 16.2651 12.7459 16.2749 12.6698 16.3084L12.6616 16.3125V16.3117C12.587 16.3437 12.5226 16.397 12.4777 16.4647C12.4328 16.5324 12.4089 16.6121 12.4085 16.6934V16.8187C12.4085 17.4415 12.1613 18.0392 11.7209 18.4797C11.2805 18.92 10.6827 19.1673 10.0599 19.1673C9.43724 19.1672 8.84006 18.9199 8.39974 18.4797C7.95931 18.0392 7.71208 17.4415 7.71208 16.8187V16.7699L7.70557 16.708C7.69484 16.6468 7.67122 16.5881 7.63477 16.5371C7.58617 16.4692 7.51781 16.4179 7.43945 16.389C7.42307 16.383 7.4066 16.3765 7.39063 16.3695C7.31453 16.3359 7.22996 16.3254 7.14811 16.3402C7.06619 16.355 6.99034 16.3943 6.93083 16.4525L6.89176 16.4915C6.67375 16.7097 6.41494 16.8829 6.13005 17.001C5.84498 17.1191 5.53938 17.18 5.23079 17.18C4.92223 17.18 4.6166 17.1191 4.33154 17.001C4.04644 16.8828 3.78712 16.7091 3.56901 16.4907V16.4899C3.35138 16.2722 3.17833 16.0142 3.06038 15.7298C2.94225 15.4448 2.8814 15.1391 2.88135 14.8306C2.88135 14.5219 2.9422 14.2156 3.06038 13.9305C3.17855 13.6456 3.35161 13.3868 3.56982 13.1688L3.61458 13.1232C3.66924 13.0648 3.70604 12.9921 3.72038 12.9132C3.73521 12.8314 3.72542 12.7468 3.69189 12.6707L3.68783 12.6626V12.6618C3.6558 12.5874 3.6032 12.5234 3.53564 12.4787C3.48477 12.445 3.42705 12.4234 3.36719 12.4144L3.30697 12.4095H3.18164C2.55878 12.4095 1.9611 12.1623 1.52067 11.7218C1.08032 11.2814 0.833008 10.6837 0.833008 10.0609C0.83311 9.43822 1.08042 8.84104 1.52067 8.40072C1.9611 7.96029 2.55878 7.71305 3.18164 7.71305H3.23047C3.31396 7.71104 3.39529 7.68433 3.46322 7.63574C3.53113 7.58715 3.58246 7.51879 3.61133 7.44043L3.63086 7.3916C3.66444 7.31551 3.67495 7.23094 3.66016 7.14909C3.6453 7.06717 3.60607 6.99132 3.54785 6.9318L3.50879 6.89274V6.89193C3.29085 6.674 3.11737 6.41574 2.99935 6.13102C2.88119 5.84596 2.82032 5.54036 2.82031 5.23177C2.82031 4.9232 2.88121 4.61758 2.99935 4.33252C3.11753 4.04742 3.29125 3.7881 3.5096 3.56999C3.72743 3.35216 3.98595 3.17938 4.27051 3.06136C4.5555 2.94322 4.86126 2.88237 5.16976 2.88232C5.47839 2.88232 5.78472 2.94317 6.06982 3.06136C6.35473 3.17953 6.61356 3.35259 6.83154 3.5708L6.87549 3.61393C6.93416 3.66947 7.00751 3.70688 7.08708 3.72135C7.1689 3.73619 7.25349 3.7264 7.32959 3.69287L7.41097 3.66195C7.43186 3.65522 7.45312 3.64991 7.47445 3.64486C7.51615 3.61531 7.55334 3.57963 7.58187 3.53662C7.62613 3.46978 7.65009 3.39132 7.65104 3.3112V3.18262C7.65104 2.55979 7.89832 1.96207 8.3387 1.52165C8.77913 1.08122 9.37682 0.833984 9.99967 0.833984C10.6225 0.833984 11.2202 1.08122 11.6606 1.52165C12.101 1.96207 12.3483 2.55979 12.3483 3.18262V3.24772Z" fill="current"/>
</g>
<defs>
<clipPath id="clip0_22895_25065">
<rect width="20" height="20" fill="white"/>
</clipPath>
</defs>
</svg>
