<svg xmlns="http://www.w3.org/2000/svg" viewBox="0 0 24 24" fill="current" stroke="current" >
  <g clip-path="url(#clip0_20886_36333)">
    <path d="M8.24228 7.33992L1.86228 8.26492L1.74928 8.28792C1.57822 8.33333 1.42227 8.42333 1.29737 8.54872C1.17247 8.67412 1.08308 8.83041 1.03834 9.00165C0.993598 9.17289 0.995105 9.35293 1.04271 9.5234C1.09031 9.69386 1.18229 9.84864 1.30928 9.97192L5.93128 14.4709L4.84128 20.8259L4.82828 20.9359C4.81781 21.1128 4.85454 21.2894 4.93473 21.4474C5.01491 21.6055 5.13566 21.7394 5.28461 21.8354C5.43356 21.9315 5.60537 21.9862 5.78243 21.994C5.95949 22.0018 6.13544 21.9625 6.29228 21.8799L11.9983 18.8799L17.6913 21.8799L17.7913 21.9259C17.9563 21.9909 18.1357 22.0109 18.311 21.9837C18.4863 21.9565 18.6513 21.8832 18.7889 21.7712C18.9265 21.6592 19.0318 21.5127 19.0941 21.3466C19.1564 21.1804 19.1734 21.0008 19.1433 20.8259L18.0523 14.4709L22.6763 9.97092L22.7543 9.88592C22.8657 9.74869 22.9388 9.58438 22.966 9.40972C22.9932 9.23506 22.9737 9.0563 22.9094 8.89165C22.845 8.72701 22.7382 8.58235 22.5998 8.47244C22.4613 8.36252 22.2962 8.29126 22.1213 8.26592L15.7413 7.33992L12.8893 1.55992C12.8068 1.39246 12.679 1.25144 12.5205 1.15283C12.3619 1.05422 12.179 1.00195 11.9923 1.00195C11.8056 1.00195 11.6226 1.05422 11.4641 1.15283C11.3056 1.25144 11.1778 1.39246 11.0953 1.55992L8.24228 7.33992Z"/>
  </g>
</svg>