<svg width="375" height="176" viewBox="0 0 375 176" fill="none" xmlns="http://www.w3.org/2000/svg">
<g clip-path="url(#clip0_22333_73639)">
<rect width="375" height="176" fill="#0F1014"/>
<g opacity="0.6">
<g filter="url(#filter0_f_22333_73639)">
<path d="M16.2451 -1.9167C15.3981 0.55033 14.1298 1.89598 12.1145 2.79308C13.7995 3.82475 14.1308 5.48438 13.2221 8.13083L10.989 14.6348C9.55666 18.8063 5.80737 21.991 0.685428 21.991H-9.0842C-14.2061 21.991 -15.8159 18.8063 -14.3836 14.6348L-12.9667 10.5081H-4.43015L-5.86245 14.6797H2.34214L5.17594 6.42634H-3.92973L-1.58877 -0.391626H7.09007L9.43103 -7.20959H1.65327L0.575194 -4.06974H-7.96137L-6.8987 -7.16474C-5.4664 -11.3363 -1.66968 -14.521 3.45226 -14.521H12.7951C17.917 -14.521 19.4793 -11.3363 18.047 -7.16474L16.2451 -1.9167ZM26.1563 -17.5711H33.2701L29.1734 -5.63967H22.0596L26.1563 -17.5711ZM55.5974 -7.20959H42.9823L41.1033 -1.73728H49.4502C54.5721 -1.73728 56.1345 1.44743 54.7022 5.61895L51.6066 14.6348C50.1743 18.8063 46.425 21.991 41.303 21.991H31.5334C26.4115 21.991 24.8017 18.8063 26.234 14.6348L27.6509 10.5081H36.1875L34.7552 14.6797H42.9597L46.1632 5.34982H30.0385L36.8612 -14.521H61.3327L55.5974 -7.20959ZM61.7983 -6.67133C63.4155 -11.3811 67.4339 -14.521 72.8878 -14.521H82.0883C87.5423 -14.521 89.4046 -11.3811 87.7874 -6.67133L80.6414 14.1414C79.0242 18.8512 75.0058 21.991 69.5519 21.991H60.3514C54.8974 21.991 53.0351 18.8512 54.6523 14.1414L61.7983 -6.67133ZM71.6829 14.6797L79.1986 -7.20959H70.7568L63.2411 14.6797H71.6829ZM95.3073 -17.5711H101.852L97.7553 -5.63967H91.2106L95.3073 -17.5711ZM104.508 -17.5711H111.052L106.956 -5.63967H100.411L104.508 -17.5711ZM134.771 -1.9167C133.924 0.55033 132.656 1.89598 130.641 2.79308C132.326 3.82475 132.657 5.48438 131.748 8.13083L129.515 14.6348C128.083 18.8063 124.334 21.991 119.212 21.991H109.442C104.32 21.991 102.71 18.8063 104.143 14.6348L105.56 10.5081H114.096L112.664 14.6797H120.869L123.702 6.42634H114.597L116.938 -0.391626H125.616L127.957 -7.20959H120.18L119.102 -4.06974H110.565L111.628 -7.16474C113.06 -11.3363 116.857 -14.521 121.979 -14.521H131.321C136.443 -14.521 138.006 -11.3363 136.573 -7.16474L134.771 -1.9167ZM144.683 -17.5711H151.796L147.7 -5.63967H140.586L144.683 -17.5711ZM158.62 15.8459H142.353L142.488 15.0385L161.126 -14.521H170.232L155.961 8.53452H161.13L165.026 -2.8138H173.705L169.809 8.53452H175.737L169.859 15.8459H167.204L165.094 21.991H156.51L158.62 15.8459ZM180.325 -6.67133C181.942 -11.3811 185.96 -14.521 191.414 -14.521H200.615C206.069 -14.521 207.931 -11.3811 206.314 -6.67133L199.168 14.1414C197.551 18.8512 193.532 21.991 188.078 21.991H178.878C173.424 21.991 171.562 18.8512 173.179 14.1414L180.325 -6.67133ZM190.209 14.6797L197.725 -7.20959H189.283L181.768 14.6797H190.209ZM213.834 -17.5711H220.378L216.282 -5.63967H209.737L213.834 -17.5711ZM223.034 -17.5711H229.579L225.482 -5.63967H218.937L223.034 -17.5711ZM251.89 -7.20959H239.275L237.396 -1.73728H245.743C250.865 -1.73728 252.427 1.44743 250.995 5.61895L247.899 14.6348C246.467 18.8063 242.718 21.991 237.596 21.991H227.826C222.704 21.991 221.095 18.8063 222.527 14.6348L223.944 10.5081H232.48L231.048 14.6797H239.253L242.456 5.34982H226.331L233.154 -14.521H257.626L251.89 -7.20959ZM263.209 -17.5711H270.323L266.226 -5.63967H259.112L263.209 -17.5711ZM270.413 -6.67133C272.03 -11.3811 276.048 -14.521 281.502 -14.521H290.703C296.156 -14.521 298.019 -11.3811 296.402 -6.67133L289.256 14.1414C287.638 18.8512 283.62 21.991 278.166 21.991H268.966C263.512 21.991 261.649 18.8512 263.266 14.1414L270.413 -6.67133ZM280.297 14.6797L287.813 -7.20959H279.371L271.855 14.6797H280.297ZM298.851 -6.67133C300.468 -11.3811 304.487 -14.521 309.941 -14.521H319.141C324.595 -14.521 326.457 -11.3811 324.84 -6.67133L317.694 14.1414C316.077 18.8512 312.059 21.991 306.605 21.991H297.404C291.95 21.991 290.088 18.8512 291.705 14.1414L298.851 -6.67133ZM308.736 14.6797L316.251 -7.20959H307.81L300.294 14.6797H308.736ZM332.36 -17.5711H338.905L334.808 -5.63967H328.263L332.36 -17.5711ZM341.561 -17.5711H348.105L344.009 -5.63967H337.464L341.561 -17.5711Z" fill="#14141A"/>
</g>
<g filter="url(#filter1_f_22333_73639)">
<mask id="path-2-outside-1_22333_73639" maskUnits="userSpaceOnUse" x="-18.7477" y="31.3882" width="376.613" height="42.5611" fill="black">
<rect fill="white" x="-18.7477" y="31.3882" width="376.613" height="42.5611"/>
<path d="M7.47241 43.9823H-7.22946L-4.65748 36.4915H20.9522L19.2581 41.4255L-4.57879 73.0035H-14.7278L7.47241 43.9823ZM34.7637 32.5442L32.5768 38.9137L25.3576 48.1987H21.3264L26.7014 32.5442H34.7637ZM41.5289 66.8583H25.262L25.397 66.051L44.0354 36.4915H53.1411L38.8699 59.547H44.0393L47.9358 48.1987H56.6146L52.7181 59.547H58.6463L52.7687 66.8583H50.1129L48.003 73.0035H39.419L41.5289 66.8583ZM85.4717 43.8029H72.8565L70.9776 49.2752H79.3245C84.4464 49.2752 86.0088 52.4599 84.5765 56.6314L81.4808 65.6473C80.0486 69.8188 76.2993 73.0035 71.1773 73.0035H61.4077C56.2857 73.0035 54.676 69.8188 56.1083 65.6473L57.5252 61.5206H66.0617L64.6294 65.6921H72.834L76.0374 56.3623H59.9128L66.7355 36.4915H91.207L85.4717 43.8029ZM105.398 32.5442L103.211 38.9137L95.9917 48.1987H91.9606L97.3356 32.5442H105.398ZM119.155 32.5442L116.968 38.9137L109.749 48.1987H105.718L111.093 32.5442H119.155ZM134.059 43.9823H119.357L121.929 36.4915H147.539L145.845 41.4255L122.008 73.0035H111.859L134.059 43.9823ZM152.743 33.4414H159.857L155.76 45.3728H148.646L152.743 33.4414ZM183.592 49.0958C182.745 51.5628 181.477 52.9084 179.461 53.8055C181.146 54.8372 181.477 56.4968 180.569 59.1433L178.336 65.6473C176.903 69.8188 173.154 73.0035 168.032 73.0035H158.263C153.141 73.0035 151.531 69.8188 152.963 65.6473L154.38 61.5206H162.917L161.484 65.6921H169.689L172.523 57.4388H163.417L165.758 50.6208H174.437L176.778 43.8029H169L167.922 46.9427H159.385L160.448 43.8477C161.88 39.6762 165.677 36.4915 170.799 36.4915H180.142C185.264 36.4915 186.826 39.6762 185.394 43.8477L183.592 49.0958ZM188.385 44.3411C190.002 39.6313 194.021 36.4915 199.475 36.4915H208.675C214.129 36.4915 215.991 39.6313 214.374 44.3411L207.228 65.1539C205.611 69.8636 201.593 73.0035 196.139 73.0035H186.938C181.484 73.0035 179.622 69.8636 181.239 65.1539L188.385 44.3411ZM198.27 65.6921L205.785 43.8029H197.344L189.828 65.6921H198.27ZM221.894 33.4414H228.439L224.342 45.3728H217.797L221.894 33.4414ZM231.095 33.4414H237.639L233.543 45.3728H226.998L231.095 33.4414ZM252.586 43.9823H237.884L240.456 36.4915H266.065L264.371 41.4255L240.534 73.0035H230.385L252.586 43.9823ZM271.269 33.4414H278.383L274.287 45.3728H267.173L271.269 33.4414ZM278.473 44.3411C280.09 39.6313 284.109 36.4915 289.562 36.4915H298.763C304.217 36.4915 306.079 39.6313 304.462 44.3411L297.316 65.1539C295.699 69.8636 291.68 73.0035 286.227 73.0035H277.026C271.572 73.0035 269.71 69.8636 271.327 65.1539L278.473 44.3411ZM288.357 65.6921L295.873 43.8029H287.431L279.916 65.6921H288.357ZM306.912 44.3411C308.529 39.6313 312.547 36.4915 318.001 36.4915H327.202C332.655 36.4915 334.518 39.6313 332.901 44.3411L325.755 65.1539C324.137 69.8636 320.119 73.0035 314.665 73.0035H305.465C300.011 73.0035 298.148 69.8636 299.765 65.1539L306.912 44.3411ZM316.796 65.6921L324.312 43.8029H315.87L308.354 65.6921H316.796ZM340.42 33.4414H346.965L342.868 45.3728H336.324L340.42 33.4414ZM349.621 33.4414H356.166L352.069 45.3728H345.524L349.621 33.4414Z"/>
</mask>
<path d="M7.47241 43.9823L7.86025 44.1503L8.33582 43.5286H7.62817L7.47241 43.9823ZM-7.22946 43.9823H-7.70911L-7.86487 44.4359H-7.38522L-7.22946 43.9823ZM-4.65748 36.4915L-4.50172 36.0378H-4.98137L-5.13713 36.4915H-4.65748ZM20.9522 36.4915H21.4319L21.5876 36.0378H21.108L20.9522 36.4915ZM19.2581 41.4255L19.6486 41.5901L19.7085 41.5107L19.7378 41.4255H19.2581ZM-4.57879 73.0035L-4.73455 73.4571H-4.40654L-4.18829 73.168L-4.57879 73.0035ZM-14.7278 73.0035L-15.1157 72.8354L-15.5912 73.4571H-14.8836L-14.7278 73.0035ZM7.47241 43.9823L7.62817 43.5286H-7.07369L-7.22946 43.9823L-7.38522 44.4359H7.31665L7.47241 43.9823ZM-7.22946 43.9823H-6.74981L-4.17783 36.4915H-4.65748H-5.13713L-7.70911 43.9823H-7.22946ZM-4.65748 36.4915L-4.81324 36.9451H20.7965L20.9522 36.4915L21.108 36.0378H-4.50172L-4.65748 36.4915ZM20.9522 36.4915H20.4726L18.7785 41.4255H19.2581H19.7378L21.4319 36.4915H20.9522ZM19.2581 41.4255L18.8676 41.261L-4.96928 72.8389L-4.57879 73.0035L-4.18829 73.168L19.6486 41.5901L19.2581 41.4255ZM-4.57879 73.0035L-4.42302 72.5498H-14.5721L-14.7278 73.0035L-14.8836 73.4571H-4.73455L-4.57879 73.0035ZM-14.7278 73.0035L-14.34 73.1715L7.86025 44.1503L7.47241 43.9823L7.08457 43.8142L-15.1157 72.8354L-14.7278 73.0035ZM34.7637 32.5442H35.2434L35.3991 32.0906H34.9195L34.7637 32.5442ZM32.5768 38.9137L32.9613 39.086L33.0257 39.0032L33.0564 38.9137H32.5768ZM25.3576 48.1987L25.2018 48.6523H25.5234L25.7421 48.371L25.3576 48.1987ZM21.3264 48.1987H20.8468L20.691 48.6523H21.1707L21.3264 48.1987ZM26.7014 32.5442L26.8572 32.0906H26.3775L26.2217 32.5442H26.7014ZM34.7637 32.5442H34.2841L32.0971 38.9137H32.5768H33.0564L35.2434 32.5442H34.7637ZM32.5768 38.9137L32.1922 38.7413L24.9731 48.0263L25.3576 48.1987L25.7421 48.371L32.9613 39.086L32.5768 38.9137ZM25.3576 48.1987L25.5134 47.745H21.4822L21.3264 48.1987L21.1707 48.6523H25.2018L25.3576 48.1987ZM21.3264 48.1987H21.8061L27.1811 32.5442H26.7014H26.2217L20.8468 48.1987H21.3264ZM26.7014 32.5442L26.5456 32.9979H34.6079L34.7637 32.5442L34.9195 32.0906H26.8572L26.7014 32.5442ZM41.5289 66.8583H42.0086L42.1643 66.4047H41.6847L41.5289 66.8583ZM25.262 66.8583L24.7633 66.9329L24.6999 67.312H25.1063L25.262 66.8583ZM25.397 66.051L24.9749 65.932L24.9146 66.0277L24.8982 66.1255L25.397 66.051ZM44.0354 36.4915L44.1912 36.0378H43.8244L43.6134 36.3726L44.0354 36.4915ZM53.1411 36.4915L53.5659 36.6059L53.9176 36.0378H53.2968L53.1411 36.4915ZM38.8699 59.547L38.4451 59.4325L38.0934 60.0006H38.7142L38.8699 59.547ZM44.0393 59.547L43.8835 60.0006H44.3632L44.519 59.547H44.0393ZM47.9358 48.1987L48.0915 47.745H47.6119L47.4561 48.1987H47.9358ZM56.6146 48.1987H57.0943L57.25 47.745H56.7704L56.6146 48.1987ZM52.7181 59.547H52.2385L52.0827 60.0006H52.5624L52.7181 59.547ZM58.6463 59.547L59.0239 59.7281L59.5342 59.0933H58.8021L58.6463 59.547ZM52.7687 66.8583L52.613 67.312H52.9272L53.1463 67.0395L52.7687 66.8583ZM50.1129 66.8583L50.2687 66.4047H49.789L49.6333 66.8583H50.1129ZM48.003 73.0035L47.8472 73.4571H48.3269L48.4826 73.0035H48.003ZM39.419 73.0035H38.9393L38.7836 73.4571H39.2632L39.419 73.0035ZM41.5289 66.8583L41.6847 66.4047H25.4178L25.262 66.8583L25.1063 67.312H41.3732L41.5289 66.8583ZM25.262 66.8583L25.7608 66.7838L25.8957 65.9764L25.397 66.051L24.8982 66.1255L24.7633 66.9329L25.262 66.8583ZM25.397 66.051L25.819 66.1699L44.4575 36.6104L44.0354 36.4915L43.6134 36.3726L24.9749 65.932L25.397 66.051ZM44.0354 36.4915L43.8796 36.9451H52.9853L53.1411 36.4915L53.2968 36.0378H44.1912L44.0354 36.4915ZM53.1411 36.4915L52.7162 36.3771L38.4451 59.4325L38.8699 59.547L39.2948 59.6614L53.5659 36.6059L53.1411 36.4915ZM38.8699 59.547L38.7142 60.0006H43.8835L44.0393 59.547L44.1951 59.0933H39.0257L38.8699 59.547ZM44.0393 59.547H44.519L48.4154 48.1987H47.9358H47.4561L43.5596 59.547H44.0393ZM47.9358 48.1987L47.78 48.6523H56.4588L56.6146 48.1987L56.7704 47.745H48.0915L47.9358 48.1987ZM56.6146 48.1987H56.135L52.2385 59.547H52.7181H53.1978L57.0943 48.1987H56.6146ZM52.7181 59.547L52.5624 60.0006H58.4906L58.6463 59.547L58.8021 59.0933H52.8739L52.7181 59.547ZM58.6463 59.547L58.2688 59.3658L52.3912 66.6772L52.7687 66.8583L53.1463 67.0395L59.0239 59.7281L58.6463 59.547ZM52.7687 66.8583L52.9245 66.4047H50.2687L50.1129 66.8583L49.9572 67.312H52.613L52.7687 66.8583ZM50.1129 66.8583H49.6333L47.5233 73.0035H48.003H48.4826L50.5926 66.8583H50.1129ZM48.003 73.0035L48.1587 72.5498H39.5747L39.419 73.0035L39.2632 73.4571H47.8472L48.003 73.0035ZM39.419 73.0035H39.8986L42.0086 66.8583H41.5289H41.0493L38.9393 73.0035H39.419ZM85.4717 43.8029L85.3159 44.2565H85.6355L85.8544 43.9775L85.4717 43.8029ZM72.8565 43.8029L73.0123 43.3492H72.5326L72.3769 43.8029H72.8565ZM70.9776 49.2752H70.498L70.3422 49.7288H70.8218L70.9776 49.2752ZM57.5252 61.5206L57.6809 61.0669H57.2013L57.0455 61.5206H57.5252ZM66.0617 61.5206H66.5414L66.6972 61.0669H66.2175L66.0617 61.5206ZM64.6294 65.6921H64.1498L63.994 66.1458H64.4737L64.6294 65.6921ZM72.834 65.6921L72.6783 66.1458H73.1579L73.3137 65.6921H72.834ZM76.0375 56.3623H76.5171L76.6729 55.9086H76.1932L76.0375 56.3623ZM59.9128 56.3623H59.4332L59.2774 56.8159H59.7571L59.9128 56.3623ZM66.7355 36.4915L66.8913 36.0378H66.4116L66.2558 36.4915H66.7355ZM91.207 36.4915L91.5897 36.6662L92.0826 36.0378H91.3627L91.207 36.4915ZM85.4717 43.8029L85.6274 43.3492H73.0123L72.8565 43.8029L72.7008 44.2565H85.3159L85.4717 43.8029ZM72.8565 43.8029H72.3769L70.498 49.2752H70.9776H71.4573L73.3362 43.8029H72.8565ZM70.9776 49.2752L70.8218 49.7288H79.1687L79.3245 49.2752L79.4802 48.8215H71.1334L70.9776 49.2752ZM79.3245 49.2752L79.1687 49.7288C81.6197 49.7288 83.1686 50.4876 83.9517 51.699C84.738 52.9153 84.7824 54.6348 84.0968 56.6314H84.5765H85.0561C85.8029 54.4565 85.7822 52.4978 84.8649 51.0789C83.9445 49.6551 82.1512 48.8215 79.4802 48.8215L79.3245 49.2752ZM84.5765 56.6314H84.0968L81.0012 65.6473H81.4808H81.9605L85.0561 56.6314H84.5765ZM81.4808 65.6473H81.0012C80.3156 67.6439 79.0905 69.3633 77.469 70.5797C75.854 71.7911 73.7841 72.5498 71.3331 72.5498L71.1773 73.0035L71.0215 73.4571C73.6925 73.4571 76.0582 72.6235 77.9564 71.1997C79.8481 69.7808 81.2138 67.8221 81.9605 65.6473H81.4808ZM71.1773 73.0035L71.3331 72.5498H61.5635L61.4077 73.0035L61.2519 73.4571H71.0215L71.1773 73.0035ZM61.4077 73.0035L61.5635 72.5498C59.1123 72.5498 57.5507 71.7909 56.7558 70.5782C55.9581 69.3611 55.9031 67.6418 56.5879 65.6473H56.1083H55.6286C54.8812 67.8242 54.9149 69.783 55.8445 71.2012C56.7769 72.6237 58.5812 73.4571 61.2519 73.4571L61.4077 73.0035ZM56.1083 65.6473H56.5879L58.0048 61.5206H57.5252H57.0455L55.6286 65.6473H56.1083ZM57.5252 61.5206L57.3694 61.9743H65.906L66.0617 61.5206L66.2175 61.0669H57.6809L57.5252 61.5206ZM66.0617 61.5206H65.5821L64.1498 65.6921H64.6294H65.1091L66.5414 61.5206H66.0617ZM64.6294 65.6921L64.4737 66.1458H72.6783L72.834 65.6921L72.9898 65.2385H64.7852L64.6294 65.6921ZM72.834 65.6921H73.3137L76.5171 56.3623H76.0375H75.5578L72.3544 65.6921H72.834ZM76.0375 56.3623L76.1932 55.9086H60.0686L59.9128 56.3623L59.7571 56.8159H75.8817L76.0375 56.3623ZM59.9128 56.3623H60.3925L67.2151 36.4915H66.7355H66.2558L59.4332 56.3623H59.9128ZM66.7355 36.4915L66.5797 36.9451H91.0512L91.207 36.4915L91.3627 36.0378H66.8913L66.7355 36.4915ZM91.207 36.4915L90.8243 36.3168L85.089 43.6282L85.4717 43.8029L85.8544 43.9775L91.5897 36.6662L91.207 36.4915ZM105.398 32.5442H105.878L106.033 32.0906H105.554L105.398 32.5442ZM103.211 38.9137L103.595 39.086L103.66 39.0032L103.691 38.9137H103.211ZM95.9917 48.1987L95.836 48.6523H96.1575L96.3763 48.371L95.9917 48.1987ZM91.9606 48.1987H91.4809L91.3252 48.6523H91.8048L91.9606 48.1987ZM97.3356 32.5442L97.4913 32.0906H97.0117L96.8559 32.5442H97.3356ZM105.398 32.5442H104.918L102.731 38.9137H103.211H103.691L105.878 32.5442H105.398ZM103.211 38.9137L102.826 38.7413L95.6072 48.0263L95.9917 48.1987L96.3763 48.371L103.595 39.086L103.211 38.9137ZM95.9917 48.1987L96.1475 47.745H92.1164L91.9606 48.1987L91.8048 48.6523H95.836L95.9917 48.1987ZM91.9606 48.1987H92.4402L97.8152 32.5442H97.3356H96.8559L91.4809 48.1987H91.9606ZM97.3356 32.5442L97.1798 32.9979H105.242L105.398 32.5442L105.554 32.0906H97.4913L97.3356 32.5442ZM119.155 32.5442H119.635L119.79 32.0906H119.311L119.155 32.5442ZM116.968 38.9137L117.353 39.086L117.417 39.0032L117.448 38.9137H116.968ZM109.749 48.1987L109.593 48.6523H109.915L110.133 48.371L109.749 48.1987ZM105.718 48.1987H105.238L105.082 48.6523H105.562L105.718 48.1987ZM111.093 32.5442L111.248 32.0906H110.769L110.613 32.5442H111.093ZM119.155 32.5442H118.675L116.488 38.9137H116.968H117.448L119.635 32.5442H119.155ZM116.968 38.9137L116.583 38.7413L109.364 48.0263L109.749 48.1987L110.133 48.371L117.353 39.086L116.968 38.9137ZM109.749 48.1987L109.905 47.745H105.873L105.718 48.1987L105.562 48.6523H109.593L109.749 48.1987ZM105.718 48.1987H106.197L111.572 32.5442H111.093H110.613L105.238 48.1987H105.718ZM111.093 32.5442L110.937 32.9979H118.999L119.155 32.5442L119.311 32.0906H111.248L111.093 32.5442ZM134.059 43.9823L134.447 44.1503L134.923 43.5286H134.215L134.059 43.9823ZM119.357 43.9823H118.878L118.722 44.4359H119.202L119.357 43.9823ZM121.929 36.4915L122.085 36.0378H121.605L121.45 36.4915H121.929ZM147.539 36.4915H148.019L148.174 36.0378H147.695L147.539 36.4915ZM145.845 41.4255L146.235 41.5901L146.295 41.5107L146.325 41.4255H145.845ZM122.008 73.0035L121.852 73.4571H122.18L122.399 73.168L122.008 73.0035ZM111.859 73.0035L111.471 72.8354L110.996 73.4571H111.703L111.859 73.0035ZM134.059 43.9823L134.215 43.5286H119.513L119.357 43.9823L119.202 44.4359H133.903L134.059 43.9823ZM119.357 43.9823H119.837L122.409 36.4915H121.929H121.45L118.878 43.9823H119.357ZM121.929 36.4915L121.774 36.9451H147.383L147.539 36.4915L147.695 36.0378H122.085L121.929 36.4915ZM147.539 36.4915H147.059L145.365 41.4255H145.845H146.325L148.019 36.4915H147.539ZM145.845 41.4255L145.454 41.261L121.618 72.8389L122.008 73.0035L122.399 73.168L146.235 41.5901L145.845 41.4255ZM122.008 73.0035L122.164 72.5498H112.015L111.859 73.0035L111.703 73.4571H121.852L122.008 73.0035ZM111.859 73.0035L112.247 73.1715L134.447 44.1503L134.059 43.9823L133.671 43.8142L111.471 72.8354L111.859 73.0035ZM152.743 33.4414L152.899 32.9877H152.419L152.263 33.4414H152.743ZM159.857 33.4414H160.337L160.492 32.9877H160.013L159.857 33.4414ZM155.76 45.3728L155.604 45.8264H156.084L156.24 45.3728H155.76ZM148.646 45.3728H148.167L148.011 45.8264H148.491L148.646 45.3728ZM152.743 33.4414L152.587 33.895H159.701L159.857 33.4414L160.013 32.9877H152.899L152.743 33.4414ZM159.857 33.4414H159.377L155.281 45.3728H155.76H156.24L160.337 33.4414H159.857ZM155.76 45.3728L155.916 44.9191H148.802L148.646 45.3728L148.491 45.8264H155.604L155.76 45.3728ZM148.646 45.3728H149.126L153.223 33.4414H152.743H152.263L148.167 45.3728H148.646ZM179.461 53.8055L179.364 53.409L178.457 53.8131L179.098 54.2056L179.461 53.8055ZM154.38 61.5206L154.536 61.0669H154.056L153.9 61.5206H154.38ZM162.917 61.5206H163.396L163.552 61.0669H163.072L162.917 61.5206ZM161.484 65.6921H161.005L160.849 66.1458H161.328L161.484 65.6921ZM169.689 65.6921L169.533 66.1458H170.013L170.168 65.6921H169.689ZM172.523 57.4388H173.002L173.158 56.9851H172.678L172.523 57.4388ZM163.417 57.4388H162.937L162.782 57.8924H163.261L163.417 57.4388ZM165.758 50.6208L165.914 50.1672H165.434L165.278 50.6208H165.758ZM174.437 50.6208L174.281 51.0745H174.761L174.916 50.6208H174.437ZM176.778 43.8029H177.257L177.413 43.3492H176.933L176.778 43.8029ZM169 43.8029L169.156 43.3492H168.676L168.52 43.8029H169ZM167.922 46.9427L167.766 47.3964H168.246L168.402 46.9427H167.922ZM159.385 46.9427H158.906L158.75 47.3964H159.23L159.385 46.9427ZM183.592 49.0958H183.112C182.704 50.2858 182.208 51.1599 181.61 51.8305C181.019 52.4936 180.295 52.9949 179.364 53.409L179.461 53.8055L179.558 54.2021C180.643 53.7191 181.56 53.099 182.319 52.2482C183.07 51.405 183.633 50.3727 184.071 49.0958H183.592ZM179.461 53.8055L179.098 54.2056C179.879 54.6842 180.329 55.295 180.49 56.0779C180.653 56.8678 180.528 57.866 180.089 59.1433H180.569H181.048C181.519 57.7741 181.682 56.6193 181.485 55.6598C181.286 54.6934 180.728 53.9586 179.825 53.4055L179.461 53.8055ZM180.569 59.1433H180.089L177.856 65.6473H178.336H178.815L181.048 59.1433H180.569ZM178.336 65.6473H177.856C177.17 67.6439 175.945 69.3633 174.324 70.5797C172.709 71.7911 170.639 72.5498 168.188 72.5498L168.032 73.0035L167.876 73.4571C170.547 73.4571 172.913 72.6235 174.811 71.1997C176.703 69.7808 178.069 67.8221 178.815 65.6473H178.336ZM168.032 73.0035L168.188 72.5498H158.418L158.263 73.0035L158.107 73.4571H167.876L168.032 73.0035ZM158.263 73.0035L158.418 72.5498C155.967 72.5498 154.405 71.7909 153.611 70.5782C152.813 69.3611 152.758 67.6418 153.443 65.6473H152.963H152.483C151.736 67.8242 151.77 69.783 152.699 71.2012C153.632 72.6237 155.436 73.4571 158.107 73.4571L158.263 73.0035ZM152.963 65.6473H153.443L154.86 61.5206H154.38H153.9L152.483 65.6473H152.963ZM154.38 61.5206L154.224 61.9743H162.761L162.917 61.5206L163.072 61.0669H154.536L154.38 61.5206ZM162.917 61.5206H162.437L161.005 65.6921H161.484H161.964L163.396 61.5206H162.917ZM161.484 65.6921L161.328 66.1458H169.533L169.689 65.6921L169.845 65.2385H161.64L161.484 65.6921ZM169.689 65.6921H170.168L173.002 57.4388H172.523H172.043L169.209 65.6921H169.689ZM172.523 57.4388L172.678 56.9851H163.573L163.417 57.4388L163.261 57.8924H172.367L172.523 57.4388ZM163.417 57.4388H163.897L166.238 50.6208H165.758H165.278L162.937 57.4388H163.417ZM165.758 50.6208L165.602 51.0745H174.281L174.437 50.6208L174.593 50.1672H165.914L165.758 50.6208ZM174.437 50.6208H174.916L177.257 43.8029H176.778H176.298L173.957 50.6208H174.437ZM176.778 43.8029L176.933 43.3492H169.156L169 43.8029L168.844 44.2565H176.622L176.778 43.8029ZM169 43.8029H168.52L167.442 46.9427H167.922H168.402L169.48 43.8029H169ZM167.922 46.9427L168.078 46.4891H159.541L159.385 46.9427L159.23 47.3964H167.766L167.922 46.9427ZM159.385 46.9427H159.865L160.928 43.8477H160.448H159.968L158.906 46.9427H159.385ZM160.448 43.8477H160.928C161.612 41.8532 162.848 40.1339 164.482 38.9168C166.109 37.7041 168.192 36.9451 170.643 36.9451L170.799 36.4915L170.955 36.0378C168.284 36.0378 165.907 36.8712 163.998 38.2938C162.095 39.7119 160.716 41.6707 159.968 43.8477H160.448ZM170.799 36.4915L170.643 36.9451H179.986L180.142 36.4915L180.298 36.0378H170.955L170.799 36.4915ZM180.142 36.4915L179.986 36.9451C182.437 36.9451 183.986 37.7039 184.769 38.9153C185.555 40.1316 185.6 41.8511 184.914 43.8477H185.394H185.873C186.62 41.6728 186.599 39.7142 185.682 38.2952C184.762 36.8714 182.968 36.0378 180.298 36.0378L180.142 36.4915ZM185.394 43.8477H184.914L183.112 49.0958H183.592H184.071L185.873 43.8477H185.394ZM198.27 65.6921L198.114 66.1458H198.594L198.749 65.6921H198.27ZM205.785 43.8029H206.265L206.421 43.3492H205.941L205.785 43.8029ZM197.344 43.8029L197.499 43.3492H197.02L196.864 43.8029H197.344ZM189.828 65.6921H189.348L189.193 66.1458H189.672L189.828 65.6921ZM188.385 44.3411H188.865C189.643 42.0745 190.98 40.2365 192.726 38.9669C194.468 37.6994 196.691 36.9451 199.319 36.9451L199.475 36.4915L199.63 36.0378C196.805 36.0378 194.291 36.8535 192.257 38.3334C190.225 39.8111 188.744 41.898 187.906 44.3411H188.385ZM199.475 36.4915L199.319 36.9451H208.519L208.675 36.4915L208.831 36.0378H199.63L199.475 36.4915ZM208.675 36.4915L208.519 36.9451C211.148 36.9451 212.852 37.6994 213.724 38.9669C214.598 40.2365 214.673 42.0745 213.895 44.3411H214.374H214.854C215.693 41.898 215.645 39.8111 214.628 38.3334C213.61 36.8535 211.657 36.0378 208.831 36.0378L208.675 36.4915ZM214.374 44.3411H213.895L206.749 65.1539H207.228H207.708L214.854 44.3411H214.374ZM207.228 65.1539H206.749C205.97 67.4205 204.633 69.2585 202.888 70.5281C201.145 71.7956 198.923 72.5498 196.294 72.5498L196.139 73.0035L195.983 73.4571C198.809 73.4571 201.322 72.6415 203.357 71.1616C205.388 69.6838 206.869 67.597 207.708 65.1539H207.228ZM196.139 73.0035L196.294 72.5498H187.094L186.938 73.0035L186.782 73.4571H195.983L196.139 73.0035ZM186.938 73.0035L187.094 72.5498C184.466 72.5498 182.761 71.7956 181.889 70.5281C181.016 69.2585 180.94 67.4205 181.719 65.1539H181.239H180.759C179.921 67.597 179.968 69.6838 180.985 71.1616C182.003 72.6415 183.957 73.4571 186.782 73.4571L186.938 73.0035ZM181.239 65.1539H181.719L188.865 44.3411H188.385H187.906L180.759 65.1539H181.239ZM198.27 65.6921H198.749L206.265 43.8029H205.785H205.306L197.79 65.6921H198.27ZM205.785 43.8029L205.941 43.3492H197.499L197.344 43.8029L197.188 44.2565H205.63L205.785 43.8029ZM197.344 43.8029H196.864L189.348 65.6921H189.828H190.308L197.823 43.8029H197.344ZM189.828 65.6921L189.672 66.1458H198.114L198.27 65.6921L198.425 65.2385H189.984L189.828 65.6921ZM221.894 33.4414L222.05 32.9877H221.57L221.414 33.4414H221.894ZM228.439 33.4414H228.918L229.074 32.9877H228.595L228.439 33.4414ZM224.342 45.3728L224.186 45.8264H224.666L224.822 45.3728H224.342ZM217.797 45.3728H217.318L217.162 45.8264H217.642L217.797 45.3728ZM231.095 33.4414L231.25 32.9877H230.771L230.615 33.4414H231.095ZM237.639 33.4414H238.119L238.275 32.9877H237.795L237.639 33.4414ZM233.543 45.3728L233.387 45.8264H233.867L234.022 45.3728H233.543ZM226.998 45.3728H226.518L226.363 45.8264H226.842L226.998 45.3728ZM221.894 33.4414L221.738 33.895H228.283L228.439 33.4414L228.595 32.9877H222.05L221.894 33.4414ZM228.439 33.4414H227.959L223.862 45.3728H224.342H224.822L228.918 33.4414H228.439ZM224.342 45.3728L224.498 44.9191H217.953L217.797 45.3728L217.642 45.8264H224.186L224.342 45.3728ZM217.797 45.3728H218.277L222.374 33.4414H221.894H221.414L217.318 45.3728H217.797ZM231.095 33.4414L230.939 33.895H237.484L237.639 33.4414L237.795 32.9877H231.25L231.095 33.4414ZM237.639 33.4414H237.16L233.063 45.3728H233.543H234.022L238.119 33.4414H237.639ZM233.543 45.3728L233.698 44.9191H227.154L226.998 45.3728L226.842 45.8264H233.387L233.543 45.3728ZM226.998 45.3728H227.478L231.574 33.4414H231.095H230.615L226.518 45.3728H226.998ZM252.586 43.9823L252.973 44.1503L253.449 43.5286H252.741L252.586 43.9823ZM237.884 43.9823H237.404L237.248 44.4359H237.728L237.884 43.9823ZM240.456 36.4915L240.611 36.0378H240.132L239.976 36.4915H240.456ZM266.065 36.4915H266.545L266.701 36.0378H266.221L266.065 36.4915ZM264.371 41.4255L264.762 41.5901L264.822 41.5107L264.851 41.4255H264.371ZM240.534 73.0035L240.379 73.4571H240.707L240.925 73.168L240.534 73.0035ZM230.385 73.0035L229.998 72.8354L229.522 73.4571H230.23L230.385 73.0035ZM252.586 43.9823L252.741 43.5286H238.04L237.884 43.9823L237.728 44.4359H252.43L252.586 43.9823ZM237.884 43.9823H238.363L240.935 36.4915H240.456H239.976L237.404 43.9823H237.884ZM240.456 36.4915L240.3 36.9451H265.91L266.065 36.4915L266.221 36.0378H240.611L240.456 36.4915ZM266.065 36.4915H265.586L263.892 41.4255H264.371H264.851L266.545 36.4915H266.065ZM264.371 41.4255L263.981 41.261L240.144 72.8389L240.534 73.0035L240.925 73.168L264.762 41.5901L264.371 41.4255ZM240.534 73.0035L240.69 72.5498H230.541L230.385 73.0035L230.23 73.4571H240.379L240.534 73.0035ZM230.385 73.0035L230.773 73.1715L252.973 44.1503L252.586 43.9823L252.198 43.8142L229.998 72.8354L230.385 73.0035ZM271.269 33.4414L271.425 32.9877H270.946L270.79 33.4414H271.269ZM278.383 33.4414H278.863L279.019 32.9877H278.539L278.383 33.4414ZM274.287 45.3728L274.131 45.8264H274.61L274.766 45.3728H274.287ZM267.173 45.3728H266.693L266.537 45.8264H267.017L267.173 45.3728ZM271.269 33.4414L271.114 33.895H278.228L278.383 33.4414L278.539 32.9877H271.425L271.269 33.4414ZM278.383 33.4414H277.904L273.807 45.3728H274.287H274.766L278.863 33.4414H278.383ZM274.287 45.3728L274.442 44.9191H267.329L267.173 45.3728L267.017 45.8264H274.131L274.287 45.3728ZM267.173 45.3728H267.652L271.749 33.4414H271.269H270.79L266.693 45.3728H267.173ZM288.357 65.6921L288.202 66.1458H288.681L288.837 65.6921H288.357ZM295.873 43.8029H296.353L296.509 43.3492H296.029L295.873 43.8029ZM287.431 43.8029L287.587 43.3492H287.108L286.952 43.8029H287.431ZM279.916 65.6921H279.436L279.28 66.1458H279.76L279.916 65.6921ZM278.473 44.3411H278.953C279.731 42.0745 281.068 40.2365 282.814 38.9669C284.556 37.6994 286.779 36.9451 289.407 36.9451L289.562 36.4915L289.718 36.0378C286.892 36.0378 284.379 36.8535 282.344 38.3334C280.313 39.8111 278.832 41.898 277.993 44.3411H278.473ZM289.562 36.4915L289.407 36.9451H298.607L298.763 36.4915L298.919 36.0378H289.718L289.562 36.4915ZM298.763 36.4915L298.607 36.9451C301.235 36.9451 302.94 37.6994 303.812 38.9669C304.686 40.2365 304.761 42.0745 303.982 44.3411H304.462H304.942C305.781 41.898 305.733 39.8111 304.716 38.3334C303.698 36.8535 301.745 36.0378 298.919 36.0378L298.763 36.4915ZM304.462 44.3411H303.982L296.836 65.1539H297.316H297.796L304.942 44.3411H304.462ZM297.316 65.1539H296.836C296.058 67.4205 294.721 69.2585 292.976 70.5281C291.233 71.7956 289.01 72.5498 286.382 72.5498L286.227 73.0035L286.071 73.4571C288.897 73.4571 291.41 72.6415 293.445 71.1616C295.476 69.6838 296.957 67.597 297.796 65.1539H297.316ZM286.227 73.0035L286.382 72.5498H277.182L277.026 73.0035L276.87 73.4571H286.071L286.227 73.0035ZM277.026 73.0035L277.182 72.5498C274.554 72.5498 272.849 71.7956 271.977 70.5281C271.103 69.2585 271.028 67.4205 271.807 65.1539H271.327H270.847C270.008 67.597 270.056 69.6838 271.073 71.1616C272.091 72.6415 274.044 73.4571 276.87 73.4571L277.026 73.0035ZM271.327 65.1539H271.807L278.953 44.3411H278.473H277.993L270.847 65.1539H271.327ZM288.357 65.6921H288.837L296.353 43.8029H295.873H295.394L287.878 65.6921H288.357ZM295.873 43.8029L296.029 43.3492H287.587L287.431 43.8029L287.276 44.2565H295.717L295.873 43.8029ZM287.431 43.8029H286.952L279.436 65.6921H279.916H280.395L287.911 43.8029H287.431ZM279.916 65.6921L279.76 66.1458H288.202L288.357 65.6921L288.513 65.2385H280.072L279.916 65.6921ZM316.796 65.6921L316.64 66.1458H317.12L317.276 65.6921H316.796ZM324.312 43.8029H324.791L324.947 43.3492H324.468L324.312 43.8029ZM315.87 43.8029L316.026 43.3492H315.546L315.39 43.8029H315.87ZM308.354 65.6921H307.875L307.719 66.1458H308.199L308.354 65.6921ZM306.912 44.3411H307.391C308.169 42.0745 309.507 40.2365 311.252 38.9669C312.995 37.6994 315.217 36.9451 317.845 36.9451L318.001 36.4915L318.157 36.0378C315.331 36.0378 312.817 36.8535 310.783 38.3334C308.751 39.8111 307.271 41.898 306.432 44.3411H306.912ZM318.001 36.4915L317.845 36.9451H327.046L327.202 36.4915L327.357 36.0378H318.157L318.001 36.4915ZM327.202 36.4915L327.046 36.9451C329.674 36.9451 331.379 37.6994 332.251 38.9669C333.124 40.2365 333.199 42.0745 332.421 44.3411H332.901H333.38C334.219 41.898 334.172 39.8111 333.155 38.3334C332.137 36.8535 330.183 36.0378 327.357 36.0378L327.202 36.4915ZM332.901 44.3411H332.421L325.275 65.1539H325.755H326.234L333.38 44.3411H332.901ZM325.755 65.1539H325.275C324.497 67.4205 323.159 69.2585 321.414 70.5281C319.672 71.7956 317.449 72.5498 314.821 72.5498L314.665 73.0035L314.509 73.4571C317.335 73.4571 319.849 72.6415 321.883 71.1616C323.915 69.6838 325.395 67.597 326.234 65.1539H325.755ZM314.665 73.0035L314.821 72.5498H305.62L305.465 73.0035L305.309 73.4571H314.509L314.665 73.0035ZM305.465 73.0035L305.62 72.5498C302.992 72.5498 301.288 71.7956 300.416 70.5281C299.542 69.2585 299.467 67.4205 300.245 65.1539H299.765H299.286C298.447 67.597 298.494 69.6838 299.511 71.1616C300.529 72.6415 302.483 73.4571 305.309 73.4571L305.465 73.0035ZM299.765 65.1539H300.245L307.391 44.3411H306.912H306.432L299.286 65.1539H299.765ZM316.796 65.6921H317.276L324.791 43.8029H324.312H323.832L316.316 65.6921H316.796ZM324.312 43.8029L324.468 43.3492H316.026L315.87 43.8029L315.714 44.2565H324.156L324.312 43.8029ZM315.87 43.8029H315.39L307.875 65.6921H308.354H308.834L316.35 43.8029H315.87ZM308.354 65.6921L308.199 66.1458H316.64L316.796 65.6921L316.952 65.2385H308.51L308.354 65.6921ZM340.42 33.4414L340.576 32.9877H340.097L339.941 33.4414H340.42ZM346.965 33.4414H347.445L347.601 32.9877H347.121L346.965 33.4414ZM342.868 45.3728L342.713 45.8264H343.192L343.348 45.3728H342.868ZM336.324 45.3728H335.844L335.688 45.8264H336.168L336.324 45.3728ZM349.621 33.4414L349.777 32.9877H349.297L349.141 33.4414H349.621ZM356.166 33.4414H356.645L356.801 32.9877H356.321L356.166 33.4414ZM352.069 45.3728L351.913 45.8264H352.393L352.549 45.3728H352.069ZM345.524 45.3728H345.045L344.889 45.8264H345.369L345.524 45.3728ZM340.42 33.4414L340.265 33.895H346.809L346.965 33.4414L347.121 32.9877H340.576L340.42 33.4414ZM346.965 33.4414H346.486L342.389 45.3728H342.868H343.348L347.445 33.4414H346.965ZM342.868 45.3728L343.024 44.9191H336.48L336.324 45.3728L336.168 45.8264H342.713L342.868 45.3728ZM336.324 45.3728H336.803L340.9 33.4414H340.42H339.941L335.844 45.3728H336.324ZM349.621 33.4414L349.465 33.895H356.01L356.166 33.4414L356.321 32.9877H349.777L349.621 33.4414ZM356.166 33.4414H355.686L351.589 45.3728H352.069H352.549L356.645 33.4414H356.166ZM352.069 45.3728L352.225 44.9191H345.68L345.524 45.3728L345.369 45.8264H351.913L352.069 45.3728ZM345.524 45.3728H346.004L350.101 33.4414H349.621H349.141L345.045 45.3728H345.524Z" fill="#1F1F29" mask="url(#path-2-outside-1_22333_73639)"/>
</g>
<g filter="url(#filter2_f_22333_73639)">
<path d="M-0.66668 117.871H-16.9336L-16.7986 117.063L1.8398 87.5039H10.9455L-3.32567 110.559H1.84369L5.74016 99.2111H14.419L10.5225 110.559H16.4507L10.5731 117.871H7.91731L5.80737 124.016H-2.77662L-0.66668 117.871ZM26.1563 84.4538H33.2701L29.1734 96.3852H22.0596L26.1563 84.4538ZM27.5971 124.016L30.1075 116.705H35.3717L42.8874 94.8153H37.7655L40.2758 87.5039H54.2189L44.1928 116.705H48.9828L46.4724 124.016H27.5971ZM61.7983 95.3536C63.4155 90.6438 67.4339 87.5039 72.8878 87.5039H82.0883C87.5423 87.5039 89.4046 90.6438 87.7874 95.3536L80.6414 116.166C79.0242 120.876 75.0058 124.016 69.5519 124.016H60.3514C54.8974 124.016 53.0351 120.876 54.6523 116.166L61.7983 95.3536ZM71.6829 116.705L79.1986 94.8153H70.7568L63.2411 116.705H71.6829ZM95.3073 84.4538H101.852L97.7553 96.3852H91.2106L95.3073 84.4538ZM104.508 84.4538H111.052L106.956 96.3852H100.411L104.508 84.4538ZM133.364 94.8153H120.749L118.87 100.288H127.217C132.339 100.288 133.901 103.472 132.469 107.644L129.373 116.66C127.941 120.831 124.191 124.016 119.07 124.016H109.3C104.178 124.016 102.568 120.831 104 116.66L105.417 112.533H113.954L112.522 116.705H120.726L123.93 107.375H107.805L114.628 87.5039H139.099L133.364 94.8153ZM153.29 83.5567L151.103 89.9261L143.884 99.2111H139.853L145.228 83.5567H153.29ZM160.055 117.871H143.788L143.923 117.063L162.562 87.5039H171.667L157.396 110.559H162.566L166.462 99.2111H175.141L171.245 110.559H177.173L171.295 117.871H168.639L166.529 124.016H157.945L160.055 117.871ZM203.998 94.8153H191.383L189.504 100.288H197.851C202.973 100.288 204.535 103.472 203.103 107.644L200.007 116.66C198.575 120.831 194.826 124.016 189.704 124.016H179.934C174.812 124.016 173.202 120.831 174.635 116.66L176.052 112.533H184.588L183.156 116.705H191.36L194.564 107.375H178.439L185.262 87.5039H209.733L203.998 94.8153ZM223.924 83.5567L221.737 89.9261L214.518 99.2111H210.487L215.862 83.5567H223.924ZM237.681 83.5567L235.494 89.9261L228.275 99.2111H224.244L229.619 83.5567H237.681ZM254.304 101.454C259.426 101.454 260.652 104.1 259.219 108.272L256.339 116.66C254.907 120.831 251.158 124.016 246.036 124.016H236.029C230.907 124.016 229.297 120.831 230.73 116.66L238.215 94.8602C239.647 90.6887 243.396 87.5039 248.518 87.5039H258.193C263.315 87.5039 264.955 90.5989 263.523 94.7705L262.199 98.628H253.662L254.971 94.8153H246.861L242.534 107.42L247.285 101.454H254.304ZM250.495 108.541H242.149L239.346 116.705H247.692L250.495 108.541ZM271.269 84.4538H278.383L274.287 96.3852H267.173L271.269 84.4538ZM285.206 117.871H268.939L269.074 117.063L287.713 87.5039H296.819L282.547 110.559H287.717L291.613 99.2111H300.292L296.396 110.559H302.324L296.446 117.871H293.79L291.68 124.016H283.096L285.206 117.871ZM329.149 94.8153H316.534L314.655 100.288H323.002C328.124 100.288 329.686 103.472 328.254 107.644L325.158 116.66C323.726 120.831 319.977 124.016 314.855 124.016H305.085C299.963 124.016 298.353 120.831 299.786 116.66L301.203 112.533H309.739L308.307 116.705H316.512L319.715 107.375H303.59L310.413 87.5039H334.884L329.149 94.8153ZM340.42 84.4538H346.965L342.868 96.3852H336.324L340.42 84.4538ZM349.621 84.4538H356.166L352.069 96.3852H345.524L349.621 84.4538Z" fill="#14141A"/>
</g>
<g filter="url(#filter3_f_22333_73639)">
<mask id="path-5-outside-2_22333_73639" maskUnits="userSpaceOnUse" x="-34.2125" y="134.278" width="378.289" height="41.6153" fill="black">
<rect fill="white" x="-34.2125" y="134.278" width="378.289" height="41.6153"/>
<path d="M-0.627322 145.746H-13.2425L-15.1214 151.219H-6.77453C-1.65259 151.219 -0.090248 154.403 -1.52255 158.575L-4.61816 167.591C-6.05046 171.762 -9.79975 174.947 -14.9217 174.947H-24.6913C-29.8133 174.947 -31.423 171.762 -29.9907 167.591L-28.5738 163.464H-20.0373L-21.4696 167.636H-13.265L-10.0616 158.306H-26.1862L-19.3635 138.435H5.10798L-0.627322 145.746ZM10.6914 135.385H17.8052L13.7085 147.316H6.59473L10.6914 135.385ZM37.853 138.435C42.9749 138.435 44.5373 141.62 43.105 145.791L41.1182 151.578C40.302 153.955 39.2425 155.659 36.6358 157.588L23.3689 167.636H36.3634L33.8531 174.947H9.04961L11.1441 168.847L31.2198 153.058C32.0827 152.34 32.5946 151.264 32.9488 150.232L34.4889 145.746H27.1854L25.4605 150.77H16.9239L18.6335 145.791C20.0658 141.62 23.8625 138.435 28.9844 138.435H37.853ZM46.3335 146.285C47.9506 141.575 51.9691 138.435 57.423 138.435H66.6235C72.0774 138.435 73.9397 141.575 72.3226 146.285L65.1765 167.097C63.5594 171.807 59.541 174.947 54.087 174.947H44.8865C39.4326 174.947 37.5703 171.807 39.1874 167.097L46.3335 146.285ZM56.218 167.636L63.7337 145.746H55.292L47.7763 167.636H56.218ZM79.8424 135.385H86.3871L82.2904 147.316H75.7457L79.8424 135.385ZM89.0429 135.385H95.5876L91.491 147.316H84.9463L89.0429 135.385ZM117.899 145.746H105.284L103.405 151.219H111.752C116.874 151.219 118.436 154.403 117.004 158.575L113.908 167.591C112.476 171.762 108.727 174.947 103.605 174.947H93.8351C88.7131 174.947 87.1033 171.762 88.5356 167.591L89.9525 163.464H98.4891L97.0568 167.636H105.261L108.465 158.306H92.3402L99.1629 138.435H123.634L117.899 145.746ZM129.218 135.385H136.332L132.235 147.316H125.121L129.218 135.385ZM130.659 174.947L133.169 167.636H138.433L145.949 145.746H140.827L143.337 138.435H157.28L147.254 167.636H152.044L149.534 174.947H130.659ZM164.86 146.285C166.477 141.575 170.495 138.435 175.949 138.435H185.15C190.604 138.435 192.466 141.575 190.849 146.285L183.703 167.097C182.086 171.807 178.067 174.947 172.613 174.947H163.413C157.959 174.947 156.097 171.807 157.714 167.097L164.86 146.285ZM174.744 167.636L182.26 145.746H173.818L166.303 167.636H174.744ZM198.369 135.385H204.913L200.817 147.316H194.272L198.369 135.385ZM207.569 135.385H214.114L210.017 147.316H203.473L207.569 135.385ZM247.792 151.039C246.945 153.506 245.677 154.852 243.662 155.749C245.347 156.781 245.678 158.44 244.769 161.087L242.536 167.591C241.104 171.762 237.355 174.947 232.233 174.947H222.463C217.341 174.947 215.731 171.762 217.164 167.591L218.581 163.464H227.117L225.685 167.636H233.889L236.723 159.382H227.617L229.958 152.564H238.637L240.978 145.746H233.2L232.122 148.886H223.586L224.649 145.791C226.081 141.62 229.878 138.435 234.999 138.435H244.342C249.464 138.435 251.027 141.62 249.594 145.791L247.792 151.039ZM257.703 135.385H264.817L260.721 147.316H253.607L257.703 135.385ZM287.145 145.746H274.529L272.651 151.219H280.997C286.119 151.219 287.682 154.403 286.249 158.575L283.154 167.591C281.721 171.762 277.972 174.947 272.85 174.947H263.081C257.959 174.947 256.349 171.762 257.781 167.591L259.198 163.464H267.735L266.302 167.636H274.507L277.71 158.306H261.586L268.408 138.435H292.88L287.145 145.746ZM293.346 146.285C294.963 141.575 298.981 138.435 304.435 138.435H313.636C319.089 138.435 320.952 141.575 319.335 146.285L312.189 167.097C310.571 171.807 306.553 174.947 301.099 174.947H291.899C286.445 174.947 284.582 171.807 286.199 167.097L293.346 146.285ZM303.23 167.636L310.746 145.746H302.304L294.788 167.636H303.23ZM326.854 135.385H333.399L329.303 147.316H322.758L326.854 135.385ZM336.055 135.385H342.6L338.503 147.316H331.958L336.055 135.385Z"/>
</mask>
<path d="M-0.627322 145.746L-0.783086 146.2H-0.463469L-0.244619 145.921L-0.627322 145.746ZM-13.2425 145.746L-13.0867 145.293H-13.5664L-13.7221 145.746H-13.2425ZM-15.1214 151.219H-15.6011L-15.7568 151.672H-15.2772L-15.1214 151.219ZM-28.5738 163.464L-28.4181 163.011H-28.8977L-29.0535 163.464H-28.5738ZM-20.0373 163.464H-19.5576L-19.4019 163.011H-19.8815L-20.0373 163.464ZM-21.4696 167.636H-21.9492L-22.105 168.089H-21.6253L-21.4696 167.636ZM-13.265 167.636L-13.4207 168.089H-12.9411L-12.7853 167.636H-13.265ZM-10.0616 158.306H-9.58191L-9.42614 157.852H-9.90579L-10.0616 158.306ZM-26.1862 158.306H-26.6658L-26.8216 158.76H-26.3419L-26.1862 158.306ZM-19.3635 138.435L-19.2078 137.981H-19.6874L-19.8432 138.435H-19.3635ZM5.10797 138.435L5.49068 138.61L5.98355 137.981H5.26374L5.10797 138.435ZM-0.627322 145.746L-0.471559 145.293H-13.0867L-13.2425 145.746L-13.3982 146.2H-0.783086L-0.627322 145.746ZM-13.2425 145.746H-13.7221L-15.6011 151.219H-15.1214H-14.6417L-12.7628 145.746H-13.2425ZM-15.1214 151.219L-15.2772 151.672H-6.9303L-6.77453 151.219L-6.61877 150.765H-14.9656L-15.1214 151.219ZM-6.77453 151.219L-6.9303 151.672C-4.47932 151.672 -2.93044 152.431 -2.14731 153.643C-1.361 154.859 -1.31665 156.578 -2.0022 158.575H-1.52255H-1.0429C-0.296145 156.4 -0.316813 154.441 -1.23409 153.023C-2.15454 151.599 -3.94781 150.765 -6.61877 150.765L-6.77453 151.219ZM-1.52255 158.575H-2.0022L-5.09781 167.591H-4.61816H-4.13851L-1.0429 158.575H-1.52255ZM-4.61816 167.591H-5.09781C-5.78336 169.587 -7.00846 171.307 -8.63001 172.523C-10.245 173.735 -12.3149 174.493 -14.7659 174.493L-14.9217 174.947L-15.0775 175.401C-12.4065 175.401 -10.0408 174.567 -8.14261 173.143C-6.25095 171.724 -4.88526 169.766 -4.13851 167.591H-4.61816ZM-14.9217 174.947L-14.7659 174.493H-24.5356L-24.6913 174.947L-24.8471 175.401H-15.0775L-14.9217 174.947ZM-24.6913 174.947L-24.5356 174.493C-26.9868 174.493 -28.5483 173.734 -29.3432 172.522C-30.141 171.305 -30.1959 169.585 -29.5111 167.591H-29.9907H-30.4704C-31.2179 169.768 -31.1841 171.727 -30.2545 173.145C-29.3221 174.567 -27.5178 175.401 -24.8471 175.401L-24.6913 174.947ZM-29.9907 167.591H-29.5111L-28.0942 163.464H-28.5738H-29.0535L-30.4704 167.591H-29.9907ZM-28.5738 163.464L-28.7296 163.918H-20.193L-20.0373 163.464L-19.8815 163.011H-28.4181L-28.5738 163.464ZM-20.0373 163.464H-20.5169L-21.9492 167.636H-21.4696H-20.9899L-19.5576 163.464H-20.0373ZM-21.4696 167.636L-21.6253 168.089H-13.4207L-13.265 167.636L-13.1092 167.182H-21.3138L-21.4696 167.636ZM-13.265 167.636H-12.7853L-9.58191 158.306H-10.0616H-10.5412L-13.7446 167.636H-13.265ZM-10.0616 158.306L-9.90579 157.852H-26.0304L-26.1862 158.306L-26.3419 158.76H-10.2173L-10.0616 158.306ZM-26.1862 158.306H-25.7065L-18.8839 138.435H-19.3635H-19.8432L-26.6658 158.306H-26.1862ZM-19.3635 138.435L-19.5193 138.889H4.95221L5.10797 138.435L5.26374 137.981H-19.2078L-19.3635 138.435ZM5.10797 138.435L4.72527 138.26L-1.01003 145.572L-0.627322 145.746L-0.244619 145.921L5.49068 138.61L5.10797 138.435ZM10.6914 135.385L10.8472 134.931H10.3675L10.2118 135.385H10.6914ZM17.8052 135.385H18.2849L18.4406 134.931H17.961L17.8052 135.385ZM13.7085 147.316L13.5528 147.77H14.0324L14.1882 147.316H13.7085ZM6.59473 147.316H6.11508L5.95931 147.77H6.43896L6.59473 147.316ZM10.6914 135.385L10.5356 135.839H17.6494L17.8052 135.385L17.961 134.931H10.8472L10.6914 135.385ZM17.8052 135.385H17.3256L13.2289 147.316H13.7085H14.1882L18.2849 135.385H17.8052ZM13.7085 147.316L13.8643 146.863H6.75049L6.59473 147.316L6.43896 147.77H13.5528L13.7085 147.316ZM6.59473 147.316H7.07438L11.1711 135.385H10.6914H10.2118L6.11508 147.316H6.59473ZM36.6358 157.588L36.3961 157.275L36.3892 157.28L36.6358 157.588ZM23.3689 167.636L23.1223 167.328L22.1168 168.089H23.2131L23.3689 167.636ZM36.3635 167.636H36.8431L36.9989 167.182H36.5192L36.3635 167.636ZM33.8531 174.947L33.6973 175.401H34.177L34.3327 174.947H33.8531ZM9.04961 174.947H8.56996L8.41419 175.401H8.89384L9.04961 174.947ZM11.1442 168.847L10.8864 168.548L10.7232 168.676L10.6645 168.847H11.1442ZM31.2198 153.058L31.4775 153.357L31.4857 153.351L31.4938 153.344L31.2198 153.058ZM34.4889 145.746H34.9686L35.1244 145.293H34.6447L34.4889 145.746ZM27.1854 145.746L27.3412 145.293H26.8615L26.7058 145.746H27.1854ZM25.4605 150.77L25.3048 151.224H25.7844L25.9402 150.77H25.4605ZM16.9239 150.77H16.4443L16.2885 151.224H16.7682L16.9239 150.77ZM37.853 138.435L37.6972 138.889C40.1482 138.889 41.6971 139.648 42.4802 140.859C43.2665 142.075 43.3108 143.795 42.6253 145.791H43.105H43.5846C44.3314 143.616 44.3107 141.658 43.3934 140.239C42.473 138.815 40.6797 137.981 38.0087 137.981L37.853 138.435ZM43.105 145.791H42.6253L40.6386 151.578H41.1182H41.5979L43.5846 145.791H43.105ZM41.1182 151.578H40.6386C40.2397 152.739 39.7927 153.703 39.1484 154.599C38.5068 155.493 37.6495 156.348 36.3961 157.275L36.6358 157.588L36.8754 157.901C38.2288 156.9 39.2046 155.938 39.9484 154.903C40.6896 153.871 41.1804 152.793 41.5979 151.578H41.1182ZM36.6358 157.588L36.3892 157.28L23.1223 167.328L23.3689 167.636L23.6154 167.944L36.8823 157.896L36.6358 157.588ZM23.3689 167.636L23.2131 168.089H36.2077L36.3635 167.636L36.5192 167.182H23.5247L23.3689 167.636ZM36.3635 167.636H35.8838L33.3734 174.947H33.8531H34.3327L36.8431 167.636H36.3635ZM33.8531 174.947L34.0088 174.493H9.20537L9.04961 174.947L8.89384 175.401H33.6973L33.8531 174.947ZM9.04961 174.947H9.52926L11.6238 168.847H11.1442H10.6645L8.56996 174.947H9.04961ZM11.1442 168.847L11.4019 169.146L31.4775 153.357L31.2198 153.058L30.9621 152.759L10.8864 168.548L11.1442 168.847ZM31.2198 153.058L31.4938 153.344C32.5159 152.494 33.0711 151.273 33.4285 150.232H32.9488H32.4692C32.1181 151.255 31.6495 152.186 30.9457 152.772L31.2198 153.058ZM32.9488 150.232H33.4285L34.9686 145.746H34.4889H34.0093L32.4692 150.232H32.9488ZM34.4889 145.746L34.6447 145.293H27.3412L27.1854 145.746L27.0297 146.2H34.3332L34.4889 145.746ZM27.1854 145.746H26.7058L24.9809 150.77H25.4605H25.9402L27.6651 145.746H27.1854ZM25.4605 150.77L25.6163 150.317H17.0797L16.9239 150.77L16.7682 151.224H25.3048L25.4605 150.77ZM16.9239 150.77H17.4036L19.1131 145.791H18.6335H18.1538L16.4443 150.77H16.9239ZM18.6335 145.791H19.1131C19.7979 143.797 21.0336 142.077 22.667 140.86C24.2947 139.648 26.3775 138.889 28.8287 138.889L28.9844 138.435L29.1402 137.981C26.4694 137.981 24.0929 138.815 22.1836 140.237C20.2802 141.656 18.9013 143.614 18.1538 145.791H18.6335ZM28.9844 138.435L28.8287 138.889H37.6972L37.853 138.435L38.0087 137.981H29.1402L28.9844 138.435ZM56.218 167.636L56.0622 168.089H56.5419L56.6977 167.636H56.218ZM63.7337 145.746H64.2134L64.3691 145.293H63.8895L63.7337 145.746ZM55.292 145.746L55.4478 145.293H54.9681L54.8124 145.746H55.292ZM47.7763 167.636H47.2966L47.1409 168.089H47.6205L47.7763 167.636ZM46.3335 146.285H46.8131C47.5914 144.018 48.9286 142.18 50.674 140.911C52.4165 139.643 54.6391 138.889 57.2672 138.889L57.423 138.435L57.5787 137.981C54.7529 137.981 52.2393 138.797 50.2049 140.277C48.1733 141.755 46.6927 143.842 45.8539 146.285H46.3335ZM57.423 138.435L57.2672 138.889H66.4677L66.6235 138.435L66.7793 137.981H57.5787L57.423 138.435ZM66.6235 138.435L66.4677 138.889C69.0958 138.889 70.8005 139.643 71.6726 140.911C72.5461 142.18 72.6212 144.018 71.843 146.285H72.3226H72.8023C73.6411 143.842 73.5936 141.755 72.5768 140.277C71.5586 138.797 69.6051 137.981 66.7793 137.981L66.6235 138.435ZM72.3226 146.285H71.843L64.6969 167.097H65.1765H65.6562L72.8023 146.285H72.3226ZM65.1765 167.097H64.6969C63.9186 169.364 62.5814 171.202 60.836 172.472C59.0935 173.739 56.8709 174.493 54.2428 174.493L54.087 174.947L53.9313 175.401C56.7571 175.401 59.2707 174.585 61.3052 173.105C63.3368 171.627 64.8173 169.541 65.6562 167.097H65.1765ZM54.087 174.947L54.2428 174.493H45.0423L44.8865 174.947L44.7308 175.401H53.9313L54.087 174.947ZM44.8865 174.947L45.0423 174.493C42.4142 174.493 40.7096 173.739 39.8374 172.472C38.9639 171.202 38.8888 169.364 39.6671 167.097H39.1874H38.7078C37.8689 169.541 37.9164 171.627 38.9332 173.105C39.9514 174.585 41.9049 175.401 44.7308 175.401L44.8865 174.947ZM39.1874 167.097H39.6671L46.8131 146.285H46.3335H45.8539L38.7078 167.097H39.1874ZM56.218 167.636H56.6977L64.2134 145.746H63.7337H63.2541L55.7384 167.636H56.218ZM63.7337 145.746L63.8895 145.293H55.4478L55.292 145.746L55.1362 146.2H63.578L63.7337 145.746ZM55.292 145.746H54.8124L47.2966 167.636H47.7763H48.2559L55.7717 145.746H55.292ZM47.7763 167.636L47.6205 168.089H56.0622L56.218 167.636L56.3738 167.182H47.9321L47.7763 167.636ZM79.8424 135.385L79.9982 134.931H79.5185L79.3628 135.385H79.8424ZM86.3871 135.385H86.8668L87.0225 134.931H86.5429L86.3871 135.385ZM82.2904 147.316L82.1347 147.77H82.6143L82.7701 147.316H82.2904ZM75.7457 147.316H75.2661L75.1103 147.77H75.59L75.7457 147.316ZM89.0429 135.385L89.1987 134.931H88.719L88.5633 135.385H89.0429ZM95.5876 135.385H96.0673L96.223 134.931H95.7434L95.5876 135.385ZM91.491 147.316L91.3352 147.77H91.8148L91.9706 147.316H91.491ZM84.9463 147.316H84.4666L84.3108 147.77H84.7905L84.9463 147.316ZM79.8424 135.385L79.6866 135.839H86.2313L86.3871 135.385L86.5429 134.931H79.9982L79.8424 135.385ZM86.3871 135.385H85.9075L81.8108 147.316H82.2904H82.7701L86.8668 135.385H86.3871ZM82.2904 147.316L82.4462 146.863H75.9015L75.7457 147.316L75.59 147.77H82.1347L82.2904 147.316ZM75.7457 147.316H76.2254L80.3221 135.385H79.8424H79.3628L75.2661 147.316H75.7457ZM89.0429 135.385L88.8872 135.839H95.4319L95.5876 135.385L95.7434 134.931H89.1987L89.0429 135.385ZM95.5876 135.385H95.108L91.0113 147.316H91.491H91.9706L96.0673 135.385H95.5876ZM91.491 147.316L91.6467 146.863H85.102L84.9463 147.316L84.7905 147.77H91.3352L91.491 147.316ZM84.9463 147.316H85.4259L89.5226 135.385H89.0429H88.5633L84.4666 147.316H84.9463ZM117.899 145.746L117.743 146.2H118.063L118.282 145.921L117.899 145.746ZM105.284 145.746L105.44 145.293H104.96L104.804 145.746H105.284ZM103.405 151.219H102.925L102.77 151.672H103.249L103.405 151.219ZM89.9525 163.464L90.1083 163.011H89.6287L89.4729 163.464H89.9525ZM98.4891 163.464H98.9688L99.1245 163.011H98.6449L98.4891 163.464ZM97.0568 167.636H96.5772L96.4214 168.089H96.901L97.0568 167.636ZM105.261 167.636L105.106 168.089H105.585L105.741 167.636H105.261ZM108.465 158.306H108.944L109.1 157.852H108.621L108.465 158.306ZM92.3402 158.306H91.8605L91.7048 158.76H92.1844L92.3402 158.306ZM99.1629 138.435L99.3186 137.981H98.839L98.6832 138.435H99.1629ZM123.634 138.435L124.017 138.61L124.51 137.981H123.79L123.634 138.435ZM117.899 145.746L118.055 145.293H105.44L105.284 145.746L105.128 146.2H117.743L117.899 145.746ZM105.284 145.746H104.804L102.925 151.219H103.405H103.885L105.764 145.746H105.284ZM103.405 151.219L103.249 151.672H111.596L111.752 151.219L111.908 150.765H103.561L103.405 151.219ZM111.752 151.219L111.596 151.672C114.047 151.672 115.596 152.431 116.379 153.643C117.165 154.859 117.21 156.578 116.524 158.575H117.004H117.483C118.23 156.4 118.21 154.441 117.292 153.023C116.372 151.599 114.579 150.765 111.908 150.765L111.752 151.219ZM117.004 158.575H116.524L113.429 167.591H113.908H114.388L117.483 158.575H117.004ZM113.908 167.591H113.429C112.743 169.587 111.518 171.307 109.896 172.523C108.281 173.735 106.211 174.493 103.76 174.493L103.605 174.947L103.449 175.401C106.12 175.401 108.486 174.567 110.384 173.143C112.275 171.724 113.641 169.766 114.388 167.591H113.908ZM103.605 174.947L103.76 174.493H93.9908L93.8351 174.947L93.6793 175.401H103.449L103.605 174.947ZM93.8351 174.947L93.9908 174.493C91.5396 174.493 89.978 173.734 89.1831 172.522C88.3854 171.305 88.3305 169.585 89.0153 167.591H88.5356H88.056C87.3085 169.768 87.3423 171.727 88.2719 173.145C89.2043 174.567 91.0085 175.401 93.6793 175.401L93.8351 174.947ZM88.5356 167.591H89.0153L90.4322 163.464H89.9525H89.4729L88.056 167.591H88.5356ZM89.9525 163.464L89.7968 163.918H98.3333L98.4891 163.464L98.6449 163.011H90.1083L89.9525 163.464ZM98.4891 163.464H98.0095L96.5772 167.636H97.0568H97.5365L98.9688 163.464H98.4891ZM97.0568 167.636L96.901 168.089H105.106L105.261 167.636L105.417 167.182H97.2126L97.0568 167.636ZM105.261 167.636H105.741L108.944 158.306H108.465H107.985L104.782 167.636H105.261ZM108.465 158.306L108.621 157.852H92.496L92.3402 158.306L92.1844 158.76H108.309L108.465 158.306ZM92.3402 158.306H92.8198L99.6425 138.435H99.1629H98.6832L91.8605 158.306H92.3402ZM99.1629 138.435L99.0071 138.889H123.479L123.634 138.435L123.79 137.981H99.3186L99.1629 138.435ZM123.634 138.435L123.252 138.26L117.516 145.572L117.899 145.746L118.282 145.921L124.017 138.61L123.634 138.435ZM129.218 135.385L129.374 134.931H128.894L128.738 135.385H129.218ZM136.332 135.385H136.811L136.967 134.931H136.487L136.332 135.385ZM132.235 147.316L132.079 147.77H132.559L132.715 147.316H132.235ZM125.121 147.316H124.641L124.486 147.77H124.965L125.121 147.316ZM129.218 135.385L129.062 135.839H136.176L136.332 135.385L136.487 134.931H129.374L129.218 135.385ZM136.332 135.385H135.852L131.755 147.316H132.235H132.715L136.811 135.385H136.332ZM132.235 147.316L132.391 146.863H125.277L125.121 147.316L124.965 147.77H132.079L132.235 147.316ZM125.121 147.316H125.601L129.697 135.385H129.218H128.738L124.641 147.316H125.121ZM130.659 174.947H130.179L130.023 175.401H130.503L130.659 174.947ZM133.169 167.636L133.325 167.182H132.845L132.689 167.636H133.169ZM138.433 167.636L138.277 168.089H138.757L138.913 167.636H138.433ZM145.949 145.746H146.429L146.584 145.293H146.105L145.949 145.746ZM140.827 145.746H140.347L140.192 146.2H140.671L140.827 145.746ZM143.337 138.435L143.493 137.981H143.013L142.858 138.435H143.337ZM157.28 138.435H157.76L157.916 137.981H157.436L157.28 138.435ZM147.254 167.636H146.775L146.619 168.089H147.099L147.254 167.636ZM152.044 167.636H152.524L152.68 167.182H152.2L152.044 167.636ZM149.534 174.947L149.378 175.401H149.858L150.014 174.947H149.534ZM130.659 174.947H131.138L133.649 167.636H133.169H132.689L130.179 174.947H130.659ZM133.169 167.636L133.013 168.089H138.277L138.433 167.636L138.589 167.182H133.325L133.169 167.636ZM138.433 167.636H138.913L146.429 145.746H145.949H145.469L137.954 167.636H138.433ZM145.949 145.746L146.105 145.293H140.983L140.827 145.746L140.671 146.2H145.793L145.949 145.746ZM140.827 145.746H141.307L143.817 138.435H143.337H142.858L140.347 145.746H140.827ZM143.337 138.435L143.182 138.889H157.125L157.28 138.435L157.436 137.981H143.493L143.337 138.435ZM157.28 138.435H156.801L146.775 167.636H147.254H147.734L157.76 138.435H157.28ZM147.254 167.636L147.099 168.089H151.889L152.044 167.636L152.2 167.182H147.41L147.254 167.636ZM152.044 167.636H151.565L149.054 174.947H149.534H150.014L152.524 167.636H152.044ZM149.534 174.947L149.69 174.493H130.814L130.659 174.947L130.503 175.401H149.378L149.534 174.947ZM174.744 167.636L174.589 168.089H175.068L175.224 167.636H174.744ZM182.26 145.746H182.74L182.896 145.293H182.416L182.26 145.746ZM173.818 145.746L173.974 145.293H173.494L173.339 145.746H173.818ZM166.303 167.636H165.823L165.667 168.089H166.147L166.303 167.636ZM164.86 146.285H165.34C166.118 144.018 167.455 142.18 169.2 140.911C170.943 139.643 173.165 138.889 175.794 138.889L175.949 138.435L176.105 137.981C173.279 137.981 170.766 138.797 168.731 140.277C166.7 141.755 165.219 143.842 164.38 146.285H164.86ZM175.949 138.435L175.794 138.889H184.994L185.15 138.435L185.306 137.981H176.105L175.949 138.435ZM185.15 138.435L184.994 138.889C187.622 138.889 189.327 139.643 190.199 140.911C191.072 142.18 191.148 144.018 190.369 146.285H190.849H191.329C192.167 143.842 192.12 141.755 191.103 140.277C190.085 138.797 188.131 137.981 185.306 137.981L185.15 138.435ZM190.849 146.285H190.369L183.223 167.097H183.703H184.183L191.329 146.285H190.849ZM183.703 167.097H183.223C182.445 169.364 181.108 171.202 179.362 172.472C177.62 173.739 175.397 174.493 172.769 174.493L172.613 174.947L172.458 175.401C175.283 175.401 177.797 174.585 179.832 173.105C181.863 171.627 183.344 169.541 184.183 167.097H183.703ZM172.613 174.947L172.769 174.493H163.569L163.413 174.947L163.257 175.401H172.458L172.613 174.947ZM163.413 174.947L163.569 174.493C160.941 174.493 159.236 173.739 158.364 172.472C157.49 171.202 157.415 169.364 158.193 167.097H157.714H157.234C156.395 169.541 156.443 171.627 157.46 173.105C158.478 174.585 160.431 175.401 163.257 175.401L163.413 174.947ZM157.714 167.097H158.193L165.34 146.285H164.86H164.38L157.234 167.097H157.714ZM174.744 167.636H175.224L182.74 145.746H182.26H181.78L174.265 167.636H174.744ZM182.26 145.746L182.416 145.293H173.974L173.818 145.746L173.663 146.2H182.104L182.26 145.746ZM173.818 145.746H173.339L165.823 167.636H166.303H166.782L174.298 145.746H173.818ZM166.303 167.636L166.147 168.089H174.589L174.744 167.636L174.9 167.182H166.458L166.303 167.636ZM198.369 135.385L198.525 134.931H198.045L197.889 135.385H198.369ZM204.913 135.385H205.393L205.549 134.931H205.069L204.913 135.385ZM200.817 147.316L200.661 147.77H201.141L201.296 147.316H200.817ZM194.272 147.316H193.792L193.637 147.77H194.116L194.272 147.316ZM207.569 135.385L207.725 134.931H207.245L207.09 135.385H207.569ZM214.114 135.385H214.594L214.749 134.931H214.27L214.114 135.385ZM210.017 147.316L209.862 147.77H210.341L210.497 147.316H210.017ZM203.473 147.316H202.993L202.837 147.77H203.317L203.473 147.316ZM198.369 135.385L198.213 135.839H204.758L204.913 135.385L205.069 134.931H198.525L198.369 135.385ZM204.913 135.385H204.434L200.337 147.316H200.817H201.296L205.393 135.385H204.913ZM200.817 147.316L200.973 146.863H194.428L194.272 147.316L194.116 147.77H200.661L200.817 147.316ZM194.272 147.316H194.752L198.848 135.385H198.369H197.889L193.792 147.316H194.272ZM207.569 135.385L207.414 135.839H213.958L214.114 135.385L214.27 134.931H207.725L207.569 135.385ZM214.114 135.385H213.634L209.538 147.316H210.017H210.497L214.594 135.385H214.114ZM210.017 147.316L210.173 146.863H203.628L203.473 147.316L203.317 147.77H209.862L210.017 147.316ZM203.473 147.316H203.952L208.049 135.385H207.569H207.09L202.993 147.316H203.473ZM243.662 155.749L243.565 155.353L242.657 155.757L243.298 156.149L243.662 155.749ZM218.581 163.464L218.736 163.011H218.257L218.101 163.464H218.581ZM227.117 163.464H227.597L227.752 163.011H227.273L227.117 163.464ZM225.685 167.636H225.205L225.049 168.089H225.529L225.685 167.636ZM233.889 167.636L233.734 168.089H234.213L234.369 167.636H233.889ZM236.723 159.382H237.203L237.359 158.929H236.879L236.723 159.382ZM227.617 159.382H227.138L226.982 159.836H227.462L227.617 159.382ZM229.958 152.564L230.114 152.111H229.635L229.479 152.564H229.958ZM238.637 152.564L238.482 153.018H238.961L239.117 152.564H238.637ZM240.978 145.746H241.458L241.614 145.293H241.134L240.978 145.746ZM233.201 145.746L233.356 145.293H232.877L232.721 145.746H233.201ZM232.122 148.886L231.967 149.34H232.446L232.602 148.886H232.122ZM223.586 148.886H223.106L222.95 149.34H223.43L223.586 148.886ZM247.792 151.039H247.313C246.904 152.229 246.409 153.103 245.811 153.774C245.22 154.437 244.495 154.939 243.565 155.353L243.662 155.749L243.758 156.146C244.844 155.663 245.761 155.043 246.519 154.192C247.271 153.349 247.834 152.316 248.272 151.039H247.792ZM243.662 155.749L243.298 156.149C244.08 156.628 244.53 157.239 244.691 158.022C244.853 158.811 244.728 159.81 244.29 161.087H244.769H245.249C245.719 159.718 245.883 158.563 245.686 157.603C245.487 156.637 244.929 155.902 244.025 155.349L243.662 155.749ZM244.769 161.087H244.29L242.057 167.591H242.536H243.016L245.249 161.087H244.769ZM242.536 167.591H242.057C241.371 169.587 240.146 171.307 238.524 172.523C236.909 173.735 234.839 174.493 232.388 174.493L232.233 174.947L232.077 175.401C234.748 175.401 237.114 174.567 239.012 173.143C240.903 171.724 242.269 169.766 243.016 167.591H242.536ZM232.233 174.947L232.388 174.493H222.619L222.463 174.947L222.307 175.401H232.077L232.233 174.947ZM222.463 174.947L222.619 174.493C220.168 174.493 218.606 173.734 217.811 172.522C217.013 171.305 216.958 169.585 217.643 167.591H217.164H216.684C215.936 169.768 215.97 171.727 216.9 173.145C217.832 174.567 219.637 175.401 222.307 175.401L222.463 174.947ZM217.164 167.591H217.643L219.06 163.464H218.581H218.101L216.684 167.591H217.164ZM218.581 163.464L218.425 163.918H226.961L227.117 163.464L227.273 163.011H218.736L218.581 163.464ZM227.117 163.464H226.637L225.205 167.636H225.685H226.164L227.597 163.464H227.117ZM225.685 167.636L225.529 168.089H233.734L233.889 167.636L234.045 167.182H225.841L225.685 167.636ZM233.889 167.636H234.369L237.203 159.382H236.723H236.244L233.41 167.636H233.889ZM236.723 159.382L236.879 158.929H227.773L227.617 159.382L227.462 159.836H236.567L236.723 159.382ZM227.617 159.382H228.097L230.438 152.564H229.958H229.479L227.138 159.382H227.617ZM229.958 152.564L229.803 153.018H238.482L238.637 152.564L238.793 152.111H230.114L229.958 152.564ZM238.637 152.564H239.117L241.458 145.746H240.978H240.499L238.158 152.564H238.637ZM240.978 145.746L241.134 145.293H233.356L233.201 145.746L233.045 146.2H240.822L240.978 145.746ZM233.201 145.746H232.721L231.643 148.886H232.122H232.602L233.68 145.746H233.201ZM232.122 148.886L232.278 148.433H223.742L223.586 148.886L223.43 149.34H231.967L232.122 148.886ZM223.586 148.886H224.066L225.128 145.791H224.649H224.169L223.106 148.886H223.586ZM224.649 145.791H225.128C225.813 143.797 227.049 142.077 228.682 140.86C230.31 139.648 232.393 138.889 234.844 138.889L234.999 138.435L235.155 137.981C232.485 137.981 230.108 138.815 228.199 140.237C226.295 141.656 224.916 143.614 224.169 145.791H224.649ZM234.999 138.435L234.844 138.889H244.187L244.342 138.435L244.498 137.981H235.155L234.999 138.435ZM244.342 138.435L244.187 138.889C246.638 138.889 248.186 139.648 248.97 140.859C249.756 142.075 249.8 143.795 249.115 145.791H249.594H250.074C250.821 143.616 250.8 141.658 249.883 140.239C248.962 138.815 247.169 137.981 244.498 137.981L244.342 138.435ZM249.594 145.791H249.115L247.313 151.039H247.792H248.272L250.074 145.791H249.594ZM257.703 135.385L257.859 134.931H257.38L257.224 135.385H257.703ZM264.817 135.385H265.297L265.453 134.931H264.973L264.817 135.385ZM260.721 147.316L260.565 147.77H261.044L261.2 147.316H260.721ZM253.607 147.316H253.127L252.971 147.77H253.451L253.607 147.316ZM257.703 135.385L257.548 135.839H264.662L264.817 135.385L264.973 134.931H257.859L257.703 135.385ZM264.817 135.385H264.338L260.241 147.316H260.721H261.2L265.297 135.385H264.817ZM260.721 147.316L260.876 146.863H253.763L253.607 147.316L253.451 147.77H260.565L260.721 147.316ZM253.607 147.316H254.086L258.183 135.385H257.703H257.224L253.127 147.316H253.607ZM287.145 145.746L286.989 146.2H287.308L287.527 145.921L287.145 145.746ZM274.529 145.746L274.685 145.293H274.206L274.05 145.746H274.529ZM272.651 151.219H272.171L272.015 151.672H272.495L272.651 151.219ZM259.198 163.464L259.354 163.011H258.874L258.718 163.464H259.198ZM267.735 163.464H268.214L268.37 163.011H267.89L267.735 163.464ZM266.302 167.636H265.823L265.667 168.089H266.147L266.302 167.636ZM274.507 167.636L274.351 168.089H274.831L274.987 167.636H274.507ZM277.71 158.306H278.19L278.346 157.852H277.866L277.71 158.306ZM261.586 158.306H261.106L260.95 158.76H261.43L261.586 158.306ZM268.408 138.435L268.564 137.981H268.085L267.929 138.435H268.408ZM292.88 138.435L293.263 138.61L293.755 137.981H293.036L292.88 138.435ZM287.145 145.746L287.3 145.293H274.685L274.529 145.746L274.374 146.2H286.989L287.145 145.746ZM274.529 145.746H274.05L272.171 151.219H272.651H273.13L275.009 145.746H274.529ZM272.651 151.219L272.495 151.672H280.842L280.997 151.219L281.153 150.765H272.806L272.651 151.219ZM280.997 151.219L280.842 151.672C283.293 151.672 284.842 152.431 285.625 153.643C286.411 154.859 286.455 156.578 285.77 158.575H286.249H286.729C287.476 156.4 287.455 154.441 286.538 153.023C285.617 151.599 283.824 150.765 281.153 150.765L280.997 151.219ZM286.249 158.575H285.77L282.674 167.591H283.154H283.633L286.729 158.575H286.249ZM283.154 167.591H282.674C281.989 169.587 280.763 171.307 279.142 172.523C277.527 173.735 275.457 174.493 273.006 174.493L272.85 174.947L272.694 175.401C275.365 175.401 277.731 174.567 279.629 173.143C281.521 171.724 282.887 169.766 283.633 167.591H283.154ZM272.85 174.947L273.006 174.493H263.236L263.081 174.947L262.925 175.401H272.694L272.85 174.947ZM263.081 174.947L263.236 174.493C260.785 174.493 259.224 173.734 258.429 172.522C257.631 171.305 257.576 169.585 258.261 167.591H257.781H257.302C256.554 169.768 256.588 171.727 257.517 173.145C258.45 174.567 260.254 175.401 262.925 175.401L263.081 174.947ZM257.781 167.591H258.261L259.678 163.464H259.198H258.718L257.302 167.591H257.781ZM259.198 163.464L259.042 163.918H267.579L267.735 163.464L267.89 163.011H259.354L259.198 163.464ZM267.735 163.464H267.255L265.823 167.636H266.302H266.782L268.214 163.464H267.735ZM266.302 167.636L266.147 168.089H274.351L274.507 167.636L274.663 167.182H266.458L266.302 167.636ZM274.507 167.636H274.987L278.19 158.306H277.71H277.231L274.027 167.636H274.507ZM277.71 158.306L277.866 157.852H261.742L261.586 158.306L261.43 158.76H277.555L277.71 158.306ZM261.586 158.306H262.065L268.888 138.435H268.408H267.929L261.106 158.306H261.586ZM268.408 138.435L268.253 138.889H292.724L292.88 138.435L293.036 137.981H268.564L268.408 138.435ZM292.88 138.435L292.497 138.26L286.762 145.572L287.145 145.746L287.527 145.921L293.263 138.61L292.88 138.435ZM303.23 167.636L303.074 168.089H303.554L303.71 167.636H303.23ZM310.746 145.746H311.225L311.381 145.293H310.902L310.746 145.746ZM302.304 145.746L302.46 145.293H301.98L301.824 145.746H302.304ZM294.788 167.636H294.309L294.153 168.089H294.633L294.788 167.636ZM293.346 146.285H293.825C294.603 144.018 295.941 142.18 297.686 140.911C299.429 139.643 301.651 138.889 304.279 138.889L304.435 138.435L304.591 137.981C301.765 137.981 299.251 138.797 297.217 140.277C295.185 141.755 293.705 143.842 292.866 146.285H293.346ZM304.435 138.435L304.279 138.889H313.48L313.636 138.435L313.791 137.981H304.591L304.435 138.435ZM313.636 138.435L313.48 138.889C316.108 138.889 317.813 139.643 318.685 140.911C319.558 142.18 319.633 144.018 318.855 146.285H319.335H319.814C320.653 143.842 320.606 141.755 319.589 140.277C318.571 138.797 316.617 137.981 313.791 137.981L313.636 138.435ZM319.335 146.285H318.855L311.709 167.097H312.189H312.668L319.814 146.285H319.335ZM312.189 167.097H311.709C310.931 169.364 309.593 171.202 307.848 172.472C306.106 173.739 303.883 174.493 301.255 174.493L301.099 174.947L300.943 175.401C303.769 175.401 306.283 174.585 308.317 173.105C310.349 171.627 311.829 169.541 312.668 167.097H312.189ZM301.099 174.947L301.255 174.493H292.054L291.899 174.947L291.743 175.401H300.943L301.099 174.947ZM291.899 174.947L292.054 174.493C289.426 174.493 287.722 173.739 286.85 172.472C285.976 171.202 285.901 169.364 286.679 167.097H286.2H285.72C284.881 169.541 284.928 171.627 285.945 173.105C286.964 174.585 288.917 175.401 291.743 175.401L291.899 174.947ZM286.2 167.097H286.679L293.825 146.285H293.346H292.866L285.72 167.097H286.2ZM303.23 167.636H303.71L311.225 145.746H310.746H310.266L302.75 167.636H303.23ZM310.746 145.746L310.902 145.293H302.46L302.304 145.746L302.148 146.2H310.59L310.746 145.746ZM302.304 145.746H301.824L294.309 167.636H294.788H295.268L302.784 145.746H302.304ZM294.788 167.636L294.633 168.089H303.074L303.23 167.636L303.386 167.182H294.944L294.788 167.636ZM326.854 135.385L327.01 134.931H326.531L326.375 135.385H326.854ZM333.399 135.385H333.879L334.035 134.931H333.555L333.399 135.385ZM329.302 147.316L329.147 147.77H329.626L329.782 147.316H329.302ZM322.758 147.316H322.278L322.122 147.77H322.602L322.758 147.316ZM336.055 135.385L336.211 134.931H335.731L335.575 135.385H336.055ZM342.6 135.385H343.079L343.235 134.931H342.755L342.6 135.385ZM338.503 147.316L338.347 147.77H338.827L338.983 147.316H338.503ZM331.958 147.316H331.479L331.323 147.77H331.803L331.958 147.316ZM326.854 135.385L326.699 135.839H333.243L333.399 135.385L333.555 134.931H327.01L326.854 135.385ZM333.399 135.385H332.92L328.823 147.316H329.302H329.782L333.879 135.385H333.399ZM329.302 147.316L329.458 146.863H322.914L322.758 147.316L322.602 147.77H329.147L329.302 147.316ZM322.758 147.316H323.237L327.334 135.385H326.854H326.375L322.278 147.316H322.758ZM336.055 135.385L335.899 135.839H342.444L342.6 135.385L342.755 134.931H336.211L336.055 135.385ZM342.6 135.385H342.12L338.023 147.316H338.503H338.983L343.079 135.385H342.6ZM338.503 147.316L338.659 146.863H332.114L331.958 147.316L331.803 147.77H338.347L338.503 147.316ZM331.958 147.316H332.438L336.535 135.385H336.055H335.575L331.479 147.316H331.958Z" fill="#1F1F29" mask="url(#path-5-outside-2_22333_73639)"/>
</g>
</g>
<rect y="114" width="375" height="62" fill="url(#paint0_linear_22333_73639)"/>
<g style="mix-blend-mode:screen" opacity="0.1" filter="url(#filter4_f_22333_73639)">
<path d="M67.0778 -127.585C-7.18189 -100.75 1.71778 -100.961 -14.0977 -90.8051C-14.1236 -90.7885 -14.1489 -90.7649 -14.1671 -90.7401C-72.6704 -11.2791 -5.06998 26.8031 36.0504 35.9122C137.93 46.2018 359.415 53.1153 430.323 -1.54839C518.958 -69.878 439.473 -76.4582 382.046 -111.507C363.108 -123.065 146.685 -156.352 67.0778 -127.585Z" fill="#634CFF"/>
</g>
</g>
<defs>
<filter id="filter0_f_22333_73639" x="-17.5976" y="-18.2585" width="366.391" height="40.937" filterUnits="userSpaceOnUse" color-interpolation-filters="sRGB">
<feFlood flood-opacity="0" result="BackgroundImageFix"/>
<feBlend mode="normal" in="SourceGraphic" in2="BackgroundImageFix" result="shape"/>
<feGaussianBlur stdDeviation="0.343721" result="effect1_foregroundBlur_22333_73639"/>
</filter>
<filter id="filter1_f_22333_73639" x="-16.2792" y="31.4031" width="373.767" height="42.7415" filterUnits="userSpaceOnUse" color-interpolation-filters="sRGB">
<feFlood flood-opacity="0" result="BackgroundImageFix"/>
<feBlend mode="normal" in="SourceGraphic" in2="BackgroundImageFix" result="shape"/>
<feGaussianBlur stdDeviation="0.343721" result="effect1_foregroundBlur_22333_73639"/>
</filter>
<filter id="filter2_f_22333_73639" x="-19.873" y="82.8692" width="377.035" height="41.8342" filterUnits="userSpaceOnUse" color-interpolation-filters="sRGB">
<feFlood flood-opacity="0" result="BackgroundImageFix"/>
<feBlend mode="normal" in="SourceGraphic" in2="BackgroundImageFix" result="shape"/>
<feGaussianBlur stdDeviation="0.343721" result="effect1_foregroundBlur_22333_73639"/>
</filter>
<filter id="filter3_f_22333_73639" x="-31.6816" y="134.244" width="375.603" height="41.8444" filterUnits="userSpaceOnUse" color-interpolation-filters="sRGB">
<feFlood flood-opacity="0" result="BackgroundImageFix"/>
<feBlend mode="normal" in="SourceGraphic" in2="BackgroundImageFix" result="shape"/>
<feGaussianBlur stdDeviation="0.343721" result="effect1_foregroundBlur_22333_73639"/>
</filter>
<filter id="filter4_f_22333_73639" x="-238.613" y="-340.613" width="910.226" height="585.226" filterUnits="userSpaceOnUse" color-interpolation-filters="sRGB">
<feFlood flood-opacity="0" result="BackgroundImageFix"/>
<feBlend mode="normal" in="SourceGraphic" in2="BackgroundImageFix" result="shape"/>
<feGaussianBlur stdDeviation="100.806" result="effect1_foregroundBlur_22333_73639"/>
</filter>
<linearGradient id="paint0_linear_22333_73639" x1="187.5" y1="114" x2="187.5" y2="176" gradientUnits="userSpaceOnUse">
<stop stop-color="#0F1014" stop-opacity="0"/>
<stop offset="1" stop-color="#0F1014"/>
</linearGradient>
<clipPath id="clip0_22333_73639">
<rect width="375" height="176" fill="white"/>
</clipPath>
</defs>
</svg>
