<svg width="132" height="32" viewBox="0 0 132 32" fill="none" xmlns="http://www.w3.org/2000/svg">
<path d="M27.62 26H22.0498L18.7492 22.6164V16.9062L27.62 26Z" fill="url(#paint0_radial_21924_107855)"/>
<path d="M27.62 26H22.0498L18.7492 22.6164V16.9062L27.62 26Z" fill="url(#paint1_radial_21924_107855)"/>
<path d="M27.702 6L23.7642 10.0368H17.2023L21.1401 6H27.702Z" fill="url(#paint2_radial_21924_107855)"/>
<path d="M27.702 6L23.7642 10.0368H17.2023L21.1401 6H27.702Z" fill="url(#paint3_radial_21924_107855)"/>
<path d="M28 12.3779L24.0622 16.4146H18.5381L15.1838 19.8532H4V19.8239L7.90916 15.8165H13.5514L15.6205 13.6953L16.8663 12.4219L16.9093 12.3779H28Z" fill="url(#paint4_radial_21924_107855)"/>
<path d="M28 12.3779L24.0622 16.4146H18.5381L15.1838 19.8532H4V19.8239L7.90916 15.8165H13.5514L15.6205 13.6953L16.8663 12.4219L16.9093 12.3779H28Z" fill="url(#paint5_radial_21924_107855)"/>
<path d="M41.8578 18.4963H39.62L36.268 24H32L38.5125 13.3071L41.9159 11.2039H38.2247L42.8984 8H51.2497C53.5106 8 54.1809 8.9828 53.0675 10.8108L50.3021 15.3514C49.476 16.7076 48.1068 17.5921 46.3336 17.9656L46.1881 24H41.551L41.8578 18.4963ZM46.0239 15.2924L48.514 11.2039H44.0615L41.5714 15.2924H46.0239Z" fill="url(#paint6_radial_21924_107855)"/>
<path d="M41.8578 18.4963H39.62L36.268 24H32L38.5125 13.3071L41.9159 11.2039H38.2247L42.8984 8H51.2497C53.5106 8 54.1809 8.9828 53.0675 10.8108L50.3021 15.3514C49.476 16.7076 48.1068 17.5921 46.3336 17.9656L46.1881 24H41.551L41.8578 18.4963ZM46.0239 15.2924L48.514 11.2039H44.0615L41.5714 15.2924H46.0239Z" fill="url(#paint7_radial_21924_107855)"/>
<path d="M51.2004 24C49.2395 24 48.6863 22.9386 49.6799 21.3071L57.7847 8H61.9834L54.1899 20.7961H59.3807L67.1742 8H71.3729L61.6281 24H51.2004Z" fill="url(#paint8_radial_21924_107855)"/>
<path d="M51.2004 24C49.2395 24 48.6863 22.9386 49.6799 21.3071L57.7847 8H61.9834L54.1899 20.7961H59.3807L67.1742 8H71.3729L61.6281 24H51.2004Z" fill="url(#paint9_radial_21924_107855)"/>
<path d="M82.0973 11.2039H76.9065L69.113 24H64.9143L73.019 10.6929C74.0127 9.06142 75.8588 8 77.8197 8H88.2474L78.5026 24H74.3038L82.0973 11.2039Z" fill="url(#paint10_radial_21924_107855)"/>
<path d="M82.0973 11.2039H76.9065L69.113 24H64.9143L73.019 10.6929C74.0127 9.06142 75.8588 8 77.8197 8H88.2474L78.5026 24H74.3038L82.0973 11.2039Z" fill="url(#paint11_radial_21924_107855)"/>
<path d="M91.5798 8H104.453L99.71 11.2039H93.8964L91.9929 14.3292H98.4064L96.443 17.5528H90.0295L86.1029 24H81.8349L91.5798 8Z" fill="url(#paint12_radial_21924_107855)"/>
<path d="M91.5798 8H104.453L99.71 11.2039H93.8964L91.9929 14.3292H98.4064L96.443 17.5528H90.0295L86.1029 24H81.8349L91.5798 8Z" fill="url(#paint13_radial_21924_107855)"/>
<path d="M106.271 8H110.608L100.863 24H96.5257L106.271 8Z" fill="url(#paint14_radial_21924_107855)"/>
<path d="M106.271 8H110.608L100.863 24H96.5257L106.271 8Z" fill="url(#paint15_radial_21924_107855)"/>
<path d="M115.527 11.2826H110.89L112.889 8H128L123.209 11.2826H119.887L112.142 24H107.781L115.527 11.2826Z" fill="url(#paint16_radial_21924_107855)"/>
<path d="M115.527 11.2826H110.89L112.889 8H128L123.209 11.2826H119.887L112.142 24H107.781L115.527 11.2826Z" fill="url(#paint17_radial_21924_107855)"/>
<defs>
<radialGradient id="paint0_radial_21924_107855" cx="0" cy="0" r="1" gradientTransform="matrix(20.7805 0.357142 -0.292681 25.3571 3.76448 17.4286)" gradientUnits="userSpaceOnUse">
<stop stop-color="#DFE5F9"/>
<stop offset="1" stop-color="#BABAFA"/>
</radialGradient>
<radialGradient id="paint1_radial_21924_107855" cx="0" cy="0" r="1" gradientTransform="matrix(-3.5122 16.7857 -13.7561 -4.28571 25.423 6)" gradientUnits="userSpaceOnUse">
<stop stop-color="#F7DFF9"/>
<stop offset="1" stop-color="#F7DFF9" stop-opacity="0"/>
</radialGradient>
<radialGradient id="paint2_radial_21924_107855" cx="0" cy="0" r="1" gradientTransform="matrix(20.7805 0.357142 -0.292681 25.3571 3.76448 17.4286)" gradientUnits="userSpaceOnUse">
<stop stop-color="#DFE5F9"/>
<stop offset="1" stop-color="#BABAFA"/>
</radialGradient>
<radialGradient id="paint3_radial_21924_107855" cx="0" cy="0" r="1" gradientTransform="matrix(-3.5122 16.7857 -13.7561 -4.28571 25.423 6)" gradientUnits="userSpaceOnUse">
<stop stop-color="#F7DFF9"/>
<stop offset="1" stop-color="#F7DFF9" stop-opacity="0"/>
</radialGradient>
<radialGradient id="paint4_radial_21924_107855" cx="0" cy="0" r="1" gradientTransform="matrix(20.7805 0.357142 -0.292681 25.3571 3.76448 17.4286)" gradientUnits="userSpaceOnUse">
<stop stop-color="#DFE5F9"/>
<stop offset="1" stop-color="#BABAFA"/>
</radialGradient>
<radialGradient id="paint5_radial_21924_107855" cx="0" cy="0" r="1" gradientTransform="matrix(-3.5122 16.7857 -13.7561 -4.28571 25.423 6)" gradientUnits="userSpaceOnUse">
<stop stop-color="#F7DFF9"/>
<stop offset="1" stop-color="#F7DFF9" stop-opacity="0"/>
</radialGradient>
<radialGradient id="paint6_radial_21924_107855" cx="0" cy="0" r="1" gradientTransform="matrix(83.122 0.285714 -1.17073 20.2857 31.0579 17.1429)" gradientUnits="userSpaceOnUse">
<stop stop-color="#DFE5F9"/>
<stop offset="1" stop-color="#BABAFA"/>
</radialGradient>
<radialGradient id="paint7_radial_21924_107855" cx="0" cy="0" r="1" gradientTransform="matrix(-14.0488 13.4286 -55.0244 -3.42857 117.692 8)" gradientUnits="userSpaceOnUse">
<stop stop-color="#F7DFF9"/>
<stop offset="1" stop-color="#F7DFF9" stop-opacity="0"/>
</radialGradient>
<radialGradient id="paint8_radial_21924_107855" cx="0" cy="0" r="1" gradientTransform="matrix(83.122 0.285714 -1.17073 20.2857 31.0579 17.1429)" gradientUnits="userSpaceOnUse">
<stop stop-color="#DFE5F9"/>
<stop offset="1" stop-color="#BABAFA"/>
</radialGradient>
<radialGradient id="paint9_radial_21924_107855" cx="0" cy="0" r="1" gradientTransform="matrix(-14.0488 13.4286 -55.0244 -3.42857 117.692 8)" gradientUnits="userSpaceOnUse">
<stop stop-color="#F7DFF9"/>
<stop offset="1" stop-color="#F7DFF9" stop-opacity="0"/>
</radialGradient>
<radialGradient id="paint10_radial_21924_107855" cx="0" cy="0" r="1" gradientTransform="matrix(83.122 0.285714 -1.17073 20.2857 31.0579 17.1429)" gradientUnits="userSpaceOnUse">
<stop stop-color="#DFE5F9"/>
<stop offset="1" stop-color="#BABAFA"/>
</radialGradient>
<radialGradient id="paint11_radial_21924_107855" cx="0" cy="0" r="1" gradientTransform="matrix(-14.0488 13.4286 -55.0244 -3.42857 117.692 8)" gradientUnits="userSpaceOnUse">
<stop stop-color="#F7DFF9"/>
<stop offset="1" stop-color="#F7DFF9" stop-opacity="0"/>
</radialGradient>
<radialGradient id="paint12_radial_21924_107855" cx="0" cy="0" r="1" gradientTransform="matrix(83.122 0.285714 -1.17073 20.2857 31.0579 17.1429)" gradientUnits="userSpaceOnUse">
<stop stop-color="#DFE5F9"/>
<stop offset="1" stop-color="#BABAFA"/>
</radialGradient>
<radialGradient id="paint13_radial_21924_107855" cx="0" cy="0" r="1" gradientTransform="matrix(-14.0488 13.4286 -55.0244 -3.42857 117.692 8)" gradientUnits="userSpaceOnUse">
<stop stop-color="#F7DFF9"/>
<stop offset="1" stop-color="#F7DFF9" stop-opacity="0"/>
</radialGradient>
<radialGradient id="paint14_radial_21924_107855" cx="0" cy="0" r="1" gradientTransform="matrix(83.122 0.285714 -1.17073 20.2857 31.0579 17.1429)" gradientUnits="userSpaceOnUse">
<stop stop-color="#DFE5F9"/>
<stop offset="1" stop-color="#BABAFA"/>
</radialGradient>
<radialGradient id="paint15_radial_21924_107855" cx="0" cy="0" r="1" gradientTransform="matrix(-14.0488 13.4286 -55.0244 -3.42857 117.692 8)" gradientUnits="userSpaceOnUse">
<stop stop-color="#F7DFF9"/>
<stop offset="1" stop-color="#F7DFF9" stop-opacity="0"/>
</radialGradient>
<radialGradient id="paint16_radial_21924_107855" cx="0" cy="0" r="1" gradientTransform="matrix(83.122 0.285714 -1.17073 20.2857 31.0579 17.1429)" gradientUnits="userSpaceOnUse">
<stop stop-color="#DFE5F9"/>
<stop offset="1" stop-color="#BABAFA"/>
</radialGradient>
<radialGradient id="paint17_radial_21924_107855" cx="0" cy="0" r="1" gradientTransform="matrix(-14.0488 13.4286 -55.0244 -3.42857 117.692 8)" gradientUnits="userSpaceOnUse">
<stop stop-color="#F7DFF9"/>
<stop offset="1" stop-color="#F7DFF9" stop-opacity="0"/>
</radialGradient>
</defs>
</svg>
